<mxfile host="app.diagrams.net" modified="2021-04-13T03:20:41.341Z" agent="5.0 (Windows NT 10.0; Win64; x64) AppleWebKit/537.36 (KHTML, like Gecko) Chrome/89.0.4389.114 Safari/537.36" etag="Fe3ZjJWhPBn_IV0DTFLG" version="14.5.1" type="github">
  <diagram id="gbDpKAsHt8fzA71NkqGk" name="Page-1">
    <mxGraphModel dx="1422" dy="762" grid="1" gridSize="10" guides="1" tooltips="1" connect="1" arrows="1" fold="1" page="1" pageScale="1" pageWidth="827" pageHeight="1169" math="0" shadow="0">
      <root>
        <mxCell id="0" />
        <mxCell id="1" parent="0" />
        <mxCell id="QQG2cU5XAlkEwUXfJwXq-60" value="" style="rounded=1;whiteSpace=wrap;html=1;fillColor=none;dashed=1;" vertex="1" parent="1">
          <mxGeometry x="579.78" y="200" width="480.22" height="280" as="geometry" />
        </mxCell>
        <mxCell id="QQG2cU5XAlkEwUXfJwXq-7" value="" style="points=[];aspect=fixed;html=1;align=center;shadow=0;dashed=0;image;image=img/lib/allied_telesis/computer_and_terminals/Server_Desktop.svg;fillColor=none;" vertex="1" parent="1">
          <mxGeometry x="240" y="240" width="78.89" height="100" as="geometry" />
        </mxCell>
        <mxCell id="QQG2cU5XAlkEwUXfJwXq-8" value="&lt;font style=&quot;font-size: 18px&quot;&gt;数据来源&lt;/font&gt;" style="text;html=1;strokeColor=none;fillColor=none;align=center;verticalAlign=middle;whiteSpace=wrap;rounded=0;" vertex="1" parent="1">
          <mxGeometry x="240" y="340" width="80" height="40" as="geometry" />
        </mxCell>
        <mxCell id="QQG2cU5XAlkEwUXfJwXq-14" style="rounded=0;orthogonalLoop=1;jettySize=auto;html=1;exitX=1;exitY=0.5;exitDx=0;exitDy=0;endArrow=none;endFill=0;" edge="1" parent="1" source="QQG2cU5XAlkEwUXfJwXq-10" target="QQG2cU5XAlkEwUXfJwXq-7">
          <mxGeometry relative="1" as="geometry" />
        </mxCell>
        <mxCell id="QQG2cU5XAlkEwUXfJwXq-10" value="" style="shape=image;verticalLabelPosition=bottom;labelBackgroundColor=#ffffff;verticalAlign=top;aspect=fixed;imageAspect=0;image=data:image/png,iVBORw0KGgoAAAANSUhEUgAAADwAAAA8CAYAAAA6/NlyAAADYElEQVRoBe2Yu28UMRCH83dSU0MLdWpooaaGDimkSME1FEmRBiQoEFIKEKKhSIo0gz5FA47xY8aP21Wylk7eu/Xav29e9t6B3LN2cM94ZQO+6x7fPLx5+I5ZYHpIX/0U+Xok8vGVyIfD9Id7jGHs7DYFGOFAnDwWefvA9+EZnp0FPxT49zeR85c+wJJBmIs5R7YhwNeXN14pie+5h8dZY0TrBsYDLaHrNQBrjPB2F/DF+3HhazUAa/a0ZuAlYNUoPdBNwEvC9kK7gckjXXTpviWnXcBUyn0UqNCQ7x7mDYwWb/V2AbM9hGJmXZ88Evn8+t/ho7QOmjzNDLyPUD59JvL99Lb8X5/qRvacyszAiClZuvVe7M3buLYDzfmL+Kn8dxMwFmwFyj2X8mZKprVmWL1sAh6VuxQg5rKK86SRNZdNwFYr57zJ7xQhb0X1GBqNllYF7g1nvFraLzEC78K7p/8bxGtoS+RUgRFT8lztXlx11QtU3/BVkuIVNk84qwbLkbMK7AkrXVj73ZMQ4eYaA/DPh47RPs7BlnVJm1qrAqfEqchaH1u8tKfGYe8NZ7SgtdamAsdFKreXjwjnxYFTh4FctFAnwtYSzosDp4pVrgDG1bUlnBcFZivKtTCsGefJc6BKn8VyOBXOoQEoUBSw2LOMyYV9CVTvDQFuyadUOIfAuevef1KGbEu5vFOrxn0pnHOg/N4Li444PVLrVbcl79GyFs6xCMK7J4xDg6dSJF6vCswD7JPhxKVrazhf7MaBoifey2NQ/W4CtuZxLZzxwJc3IseF/6lKxizdQ6OlmYCtYZ0L5x9nImfP7VFSAsvds4QzBjEBMxCY3GL6e1g0EIDVWw8ROqelzxk65XEzsOV1jb11H96MjWD1rsvDDLbmcixo5ndr7qq3zR7mAd5+PBV7JihzoyV+I1OwXO8CZhJLaM8G1fnR4m1uYBYYcSpS0a19WCA90E3AS0O3wqK7GXgp6B7YbmAmII/2UchYoyVn0Ri2Lg/rRFTKmVsWc3ursWqL+yHAOikesJzIrIWKuTyHCtVR6ocC60J/j5WOtyw1AqGLR0eDqrYpwDo5PcIpNEDw3pv6cI8xsyBDPdOBw8XWcL0Br8ELMzVsHp5p3TXMvXl4DV6YqWHz8EzrrmHuP/a0UmI8mF3AAAAAAElFTkSuQmCC;" vertex="1" parent="1">
          <mxGeometry x="120" y="200" width="40" height="40" as="geometry" />
        </mxCell>
        <mxCell id="QQG2cU5XAlkEwUXfJwXq-11" value="罗盘" style="text;html=1;strokeColor=none;fillColor=none;align=center;verticalAlign=middle;whiteSpace=wrap;rounded=0;" vertex="1" parent="1">
          <mxGeometry x="80" y="210" width="40" height="20" as="geometry" />
        </mxCell>
        <mxCell id="QQG2cU5XAlkEwUXfJwXq-17" style="edgeStyle=none;rounded=0;orthogonalLoop=1;jettySize=auto;html=1;exitX=1;exitY=0.5;exitDx=0;exitDy=0;endArrow=none;endFill=0;" edge="1" parent="1" source="QQG2cU5XAlkEwUXfJwXq-12" target="QQG2cU5XAlkEwUXfJwXq-7">
          <mxGeometry relative="1" as="geometry" />
        </mxCell>
        <mxCell id="QQG2cU5XAlkEwUXfJwXq-12" value="" style="shape=image;verticalLabelPosition=bottom;labelBackgroundColor=#ffffff;verticalAlign=top;aspect=fixed;imageAspect=0;image=data:image/png,iVBORw0KGgoAAAANSUhEUgAAAFAAAABQCAYAAACOEfKtAAAFg0lEQVR4Ae2bvY9cNRDA839Sp4V0EVQprqFJkQpEx0d5lDm6BCoipaKgoaGgIUoCJ3J8KFFe9NvVRD7fjHfs8fO+Rba0su+tPR7/3nhm7Lu7tcwSInArNHoOXibAoBFMgBNgkEBw+LTACTBIIDh8WuAEGCQQHD4tcAIMEggOnxb4fwT47MWb5dffXgeXNmb4piwQcJ9/c7l88OHvuw9tnm25bALg1d9vl/OLV8vtu8/ewxOIPOO7rZajA3z607/LnXvPb4ATgFLTh75bK0cDiI87e/CHCu7+F38ufAReWjNmS/5xOEC2a+rnUjgf3Xu+/PzLf++NjDbP0j7S/urbvxZkHbsMBfjd4yvTz108ujJZ8J3lH5F5zDIEIJZk+bkvz32WhLXRVywwrZGdWu5IoKsCJAWx/NzZg5dNKcred75UQTLX6LRnFYCSlqRWIm18Wo9oigzLP5L2jPKP3QH+8OQf01+dP+yfzyHT8o/osnbpBhAf9MmnL9St9dnXl26LQI6kMV6/hrUxh1h5WqOTV04L7DDA/PiVKo+f8ypv5YU1eR9zMWeqg7TXOhaGAH7/o75d8U185ymlFyCLp64BwNyaf2Sre/Xy6E6fEEAtNcEneRy4BBrNf6Xg0jZ9vQFiJ//hqxvWiM49SwhguriatMQKNKm8UhuQ3gCxT6Wub+tNAvREWHyUZrUlWKXvvAk0uqVyTg6gFSDSRUXahwLNyQL0BogIvHSsFWhOEiDRLl3cqLYWaU8SoHWfNwIkc6dlswDTpDVPmEungzUhaqee/GV60qz0BZTaoTRGcq3S5UDp9qQnSF4mc+VFuwLjeNerhADWKIGFaqeDKERk5tYvehHELPm9TiTDAMqiULzm9GEB0IKFzCE1YK3x+MUeZThAlJat3wKSMSze48foYwG0rLYWaggg51KSWD4lP2gpxRazrqG0hdOXMTUlj8DIxV/2Ks0AgZYvsnVbHAo0NedsDQwvFxl8WnXU5PKsCWDJt1gTeZ4j9+PkUpZ2r63mmb+lTxNAbVuINR5aMLcoXAKUrqWwSC0lYYHIx/rxhd4bmRYw3jFNAEvHNMtHsfD8JqYGAnK1X8h7b2S8QGr7NQFkknSrifWRtOZl799u+ksZQw0EKwjtIvbF9euodKy0sUrLatEJ+SWrz/X2/twMME8R8vMn32sWIwvWakDyJxsslE9+BNPG5M+Yk7nTAjzpl+uZ9mtpNwNkMlGKOo9uLYtP5UXaOaTcZ7eAssasBrDXiaMWJH41P6adJEDeWG2iXAsr728l2icLUMx+H0iu/2InX3zkZxLkUgA5eYACklSm541M6SZG5qQ+CYCkEVYOmC6GdtQ/an4un0N+Rqf82Cnf9ahDQUSzJm+utcvvjD8MsrYz4LCmPE3RQOzkK/kjOvcsIYCWJdWeMDw3MlaA0GBYv7ivsVxNrvYsBBCBpUjL1jl0NhalrEBTcxMj52TNgmtegOjkqcMAZRKU1453LMb6fa2MTWvkkAjz8cLnJVqnHl6AV06qh7fdDaBMWNrW+MfeBZlszdzq1tiumu7dATKJBIh8UfxcujjQFLSecb5FljaHN9BYsmuerwJQFNinEHoCfej2RGTk9d5X6rc7bHvmHFlWBSgLwQdpKQ/W4/2HGayavprFeRNq0adnPQSgKNz6DzOt/6Aj865ZDwXIQrAkK+/Dp6URk7bl57z/oLMmPGQPBygLsvI+tqikMdp2PXRxIPJH1UcDKAskmlr+MQVIH/purRwdoAAh9bDyOb7batkMQADlx8K1jl89X8amAMrC8I+j8zmZu7beJMDaRRyz/wQYpD8BToBBAsHh0wInwCCB4PBpgRNgkEBw+LTACTBIIDh8WuAEGCQQHD4tcAIMEggOfwcN/kt2d915IQAAAABJRU5ErkJggg==;" vertex="1" parent="1">
          <mxGeometry x="120" y="260" width="40" height="40" as="geometry" />
        </mxCell>
        <mxCell id="QQG2cU5XAlkEwUXfJwXq-13" value="FTrace" style="text;html=1;strokeColor=none;fillColor=none;align=center;verticalAlign=middle;whiteSpace=wrap;rounded=0;" vertex="1" parent="1">
          <mxGeometry x="80" y="270" width="40" height="20" as="geometry" />
        </mxCell>
        <mxCell id="QQG2cU5XAlkEwUXfJwXq-18" style="edgeStyle=none;rounded=0;orthogonalLoop=1;jettySize=auto;html=1;exitX=1;exitY=0.5;exitDx=0;exitDy=0;endArrow=none;endFill=0;" edge="1" parent="1" source="QQG2cU5XAlkEwUXfJwXq-15" target="QQG2cU5XAlkEwUXfJwXq-7">
          <mxGeometry relative="1" as="geometry" />
        </mxCell>
        <mxCell id="QQG2cU5XAlkEwUXfJwXq-15" value="" style="shape=image;verticalLabelPosition=bottom;labelBackgroundColor=#ffffff;verticalAlign=top;aspect=fixed;imageAspect=0;image=data:image/png,iVBORw0KGgoAAAANSUhEUgAAADwAAAA8CAYAAAA6/NlyAAAD9ElEQVRoBe2aPW8UMRCG819poYWWOi00FEDFR0EDVIEiDaFCIEGTVJGQoIEKiSK5O4yeRCMNI4937LU36HKWVl5vdj3zzjtfu7m9dM3G3jXDm3aAt53xHcPXmuHfZym9/bJO9w9Waf/11R0vP6zT159/unDhujRg7744TzcenC1+3H5ynh4ertLH001Cj8iIGsQF/ObzelGg+6/OEzKjilsj3Hocs4wLGAVGstvCogUpa7wAXY+/beSSOy8K+N7B6oLFH7/6xKOgAuh/ARgWnx2tL2JRlKuZcW+SJgkTd/cGsX5lgOewiGt+Ot2kR4erdOfpvyFFiHmDLL4Y4J4sonTp8DI2XjQU8FwWj04uWSSzlgDav+G6uSEJtlvS6sEibje3rlObc0PcfxZgFHx3skktGRXXa2XRsqrXAMsNuWcW4NzGpWtk1B4sivLebBsTCJF7hwIexaIo7822PAFS7h0CmMQxNxZFwZbZlifCTvYZAlgLEEFLz7o8SQ1GhyGAdcwsCdTrvcncoscQwCSupVwa9516g5IaPJvhUjmSzkYs22v2WCxVB928zGIYV9GxooWycS+Qeh/isXbo52cBxlVKCtysbAu1Yt45oVIzqMl6r9mAcRfPtemntbDSeU3Me16VM4T1tNmAAeH1r6XyZGMRECWD6L95Lwg5wCQ0/WwXwGxo2zmE2/I0lVF1NtVK2nPPwDnAugazTzfAfHHIDQTCSMQNLRsWqKy9F4ScfGvEboCj1sspJddsghGAudnLG7KXzEMB11heFLJzNLPbFwS7j6ytsboyzOZRRUQhO+s20Cqr11SAyNDPcN4dMGUqEq+esqXMrpVHztQAnH5mCGA2LTUjU0razG4V1usptkiW+n7Op55Bv6YP8dGkkjNAtAmhXy8NW5KGAq6plVbp6IvHVJuZ22cYw1FrWrCsc7FnXVPWpXxhS1JUpyaXZnOvGcmBtNcE0NRMkvOGfJrVewxlGEElhTxFuR598SiFjgYq58MBtzYjc9tML9sPB4xlW8pUTZuZe3Hx8sAigFubEV4hxRVLc6678xqYRQCj7FTNzMVzpM2kNOUA52oweiwGGGG1zUiuU+LlAkPAYGk/L+ktCri2TMlXEOopjOViNecZXMuVpMUZjgrUIEqNhb5Pn3sZOiq/ufFAgD2m2kGteOs5P5KzcmU9y6UjSUUE6bm1GSkZAE/g/82eK4v8SFi4DGMt2ahmRqkWV7WAj79f/r+Z3BCRH/UuFzAKwFb0s4xWqrYZwUD8euf5+7afRQA2wi6YioC5AWVgu+aICm/dX+tSIysEmJu2aUwyvE1gwbIDvG2MWjw7hq1Ftm29Y3jbGLV4/gLtv39ZOaHxQAAAAABJRU5ErkJggg==;" vertex="1" parent="1">
          <mxGeometry x="120" y="320" width="40" height="40" as="geometry" />
        </mxCell>
        <mxCell id="QQG2cU5XAlkEwUXfJwXq-16" value="TAPD" style="text;html=1;strokeColor=none;fillColor=none;align=center;verticalAlign=middle;whiteSpace=wrap;rounded=0;" vertex="1" parent="1">
          <mxGeometry x="80" y="330" width="40" height="20" as="geometry" />
        </mxCell>
        <mxCell id="QQG2cU5XAlkEwUXfJwXq-21" style="edgeStyle=none;rounded=0;orthogonalLoop=1;jettySize=auto;html=1;exitX=1;exitY=0.5;exitDx=0;exitDy=0;endArrow=none;endFill=0;" edge="1" parent="1" source="QQG2cU5XAlkEwUXfJwXq-20" target="QQG2cU5XAlkEwUXfJwXq-7">
          <mxGeometry relative="1" as="geometry" />
        </mxCell>
        <mxCell id="QQG2cU5XAlkEwUXfJwXq-20" value="……" style="text;html=1;strokeColor=none;fillColor=none;align=right;verticalAlign=middle;whiteSpace=wrap;rounded=0;" vertex="1" parent="1">
          <mxGeometry x="80" y="380" width="80" height="20" as="geometry" />
        </mxCell>
        <mxCell id="QQG2cU5XAlkEwUXfJwXq-22" value="" style="points=[];aspect=fixed;html=1;align=center;shadow=0;dashed=0;image;image=img/lib/allied_telesis/storage/Datacenter_Server_Storage_Unit_Large.svg;fillColor=none;" vertex="1" parent="1">
          <mxGeometry x="400" y="216.26" width="120" height="123.74" as="geometry" />
        </mxCell>
        <mxCell id="QQG2cU5XAlkEwUXfJwXq-23" value="&lt;font style=&quot;font-size: 18px&quot;&gt;数据中台&lt;/font&gt;" style="text;html=1;strokeColor=none;fillColor=none;align=center;verticalAlign=middle;whiteSpace=wrap;rounded=0;" vertex="1" parent="1">
          <mxGeometry x="400" y="340" width="120" height="40" as="geometry" />
        </mxCell>
        <mxCell id="QQG2cU5XAlkEwUXfJwXq-24" value="登录" style="endArrow=classic;html=1;" edge="1" parent="1">
          <mxGeometry width="50" height="50" relative="1" as="geometry">
            <mxPoint x="548.67" y="100" as="sourcePoint" />
            <mxPoint x="628.78" y="100" as="targetPoint" />
          </mxGeometry>
        </mxCell>
        <mxCell id="QQG2cU5XAlkEwUXfJwXq-25" value="" style="shape=image;verticalLabelPosition=bottom;labelBackgroundColor=#ffffff;verticalAlign=top;aspect=fixed;imageAspect=0;image=data:image/png,iVBORw0KGgoAAAANSUhEUgAAAKAAAAB3CAYAAACE9Eu6AAAgAElEQVR4Ae2d+XObx5nn52/YH3ZqLFsSL9wgKVk+5CQT72yS2djeGsc1mdnNzqbGHs8mm0ns2Il3pvaamvIkm63Kji/Jl2T5kkRKvEHcAMVLJEGCAC8QvElJPERKFCnxBkDwu/X0+77AixcHLwA8BFQ13qvfPp7+vE93P293v3+AzC8jgT2UwB/sYdyZqDMSQAbADAR7KoEMgHsq/kzkGQAzDOypBA4FgBsAhlaWUTk7g/cmb+KNkX685O3An3Q78XSnA1pXE3O0T+foGvkhv3QP3UthpPtHcQ4urKFi/D7e7b+L152TeLFuDP/GNoInTUNQ6waYe8I4jGcto3ix9iZea7uNd7yzqLj5AIMPfHuS7mTK6cACeD8QQPnsDN4aHcC3u9pCkAmwbXdLYVBYFOZ8IJBMGUeEdd+/jvLx+/h1xyS+ZRuEWt8Htb6fc9X9UDM3AHU1Bx9BqNINQlUluCGoqoagquTcN01j+FXbNMpuLGDetx4R10E4OFAABgE03J/Da8N9OOFu3jV08SClsCmO+vtzoDh3+wtuAPV3FvEL1zgKjH1QG0RulwCqKoehquBcftUIfu6YRv3tZVCcB+F3IABc39hA1ewM/n2vO2XQxYOR4qRqmtKw3R/dUzkxj+frh6E2ejln8KYMQA7EEajKR/C89RYqbi7sKN3bzedu/O97AJsezOMFjxva9qY9dZQGSstWf013F/F8wxDUxt4wfARhmgAkCMk9Zx1H0/TKVpOddn/7FsBpnw+/GhmAtr1537hvdLRheGU5YSFNr/rxZsc41KZezu0xgKryUajKRvFLxwymV1LXtk0olAQX9yWAtrlZPNPRtm/Ao4fgW51t6FteSiBKwDr9AKftfWH4CMJ9AiBB+JTuBiwTifOQMIMpuLivAPRtBPHbW6P7CjyC79udTgwm0Hy+4AZ+452CxuyBxuTZtwAShKqyMfxzxz1QmvfDb18B+LtbY/sOvtMdrQnhm/Ot4z87Rjn4DgiAytIx/Kh2CnNre2+22VcALq6v4y96u6B1Nu8Ld7K9Ba0L9+MqCmrvvdA4FIbvAAFIED5nmdjzduGeAyi1s5ER+M/3CYRld2cSwven9QOR8B0wAAnC75rGMb2yd5pwTwGcC/jx476eKPMGacKfDnqTqgUL21vww94uvDUygN/fuoEPJ2/hg4lb+L+3xvDaUD+e63ZHxPePY8Nx4ZvzBfB84yA05p4DDyBB+H3zJO7tUXW8ZwD6NzbwI28PtM4W5v7rYB88S+EeWnBjA7+7ORa6Lvjbzva0uw3/ODaCxvvzWAlKdW00X7d9PhTPTONXw4NYjePfH9zAjxzD0FgIvsMBoLL0Bv6y5jYob+n+7RmAv70xBm1bS5T7sdeDyrt3QFqQfra5e/iG2xnlL9a9wrl/2+nCxenbWA7urGqh3ni832/6pjj4DhmAypIbeNt9L162U3Z+TwAkqARY4m0LnQ78dV8vzk6Mo/zuDH7o6d70nhNOB94bvxVXe+1WimTnY5qP4DuEABKElonEhvbdylB6f9oBnPH5cNrVtilM8cCMd/75rg70LC1K85e045k1P56u8R56AJ+svIXby+l7Y5J2AN8cGkg6fKQpaXhWKn9vdt6MhO+QakDSgj9pjN/7T7aM0w6g9d49PNPuhLbVkRT3Sp83ZVWuIOzrswvR8B1iAAnCmsn0VMVpB5AKlarhN4YGdw3gSz3doc6KAEuyt9QxfOH6wEMH4HPmSaynoVO8JwAKkLgWFvA3fd4dgfhUuxM3VleFoFK2Nd6eh8bS/dABSFpQfyv1WjAtANKDVDc/H7eqJPvffx8exqm2Nmgdji254unplEEnBEzp/kHz4EML4J9Zp1I+5yQtADbOzzOonmxrwy8GBnBhagq1c3O4ubqKNZHBl2x/RdPTeKm7OyGEL3Z1gQzVqf413l2Axkra7+HUgMqSm6ifSu1g1rQA+NbQELSO1rjuRGsbTjvb416X3mueTY/B9NfdNx96AN9suZvS5zzlAJJWO9XqhLalNSnu2XZ3WuY5LAbW8bi956EHsLDsFhb88d8M7ZbOlANYPnMnKeAJAL89OrbbPG/p/vKJOQ6+h7wKVl69ibLR1Bn4Uw7g6wODSQWQ2o7p+L3WeSPtABYaBvCmaxKGiQVMLPvZ4IDlQBCjiz527g3nFAqqhyPmBYunZYpnxQmTkoQ5IdxoaG5ENI2AiXQ3QL3eaHcTBODPm+6kTOQpBZA6Cs9Q2y5J1S+Fc8fvT5kwhIAp3aev9aYVwNfaJ3BzySckIe725pKfrY4gTExPB4BPVoynzCaYUgD7l5ahbW5Lmjvd6opbMMm80L+wGoYvxVWw1tCHz4a336k6PzgHLVshITwxPVUakLRg//zmD8dOyiClALoeLOCUoz1pAL7Y0bOTPG77njJx+y/FAH42PLvt9Ak3EITp0IAEYGmK2oEpBZAEtRBYR9nMHfysb2DXMP64xyvIPqXb3/VPpUUDvuGa2HU+ftk2HVqaI5Ua8P90pKbtnXIAxRKmqYDuB4u4NDWNfxoew191e/GNVje0TW1bcj/pHRAHl5z9IEDDVlcRAPzcq73/5LoNTW0r8m0D0Fg7edcdglJt6YLa3MMcNyq6h03HpCmZYeeFxuRFgb4XR4wOFJpHkWXvxLdLBpClG8OpxnrM3d+9eWN6NYCCqhERhNyKCMnshJAG/GljajoiaQUwHjEE5h2fHzX35vGqZwD5TU5oY7gf9/TFC2LH59f9QQbgGv0H1tirpxevj0BZ08Imle8WQK3eg+MGJ/KNw8ixu/FMpRdy/Rj+S48XK0lqVv19+0zKAXzRMrVjGSe6cU8BvOv349q9ebxzYxwvdXhiQicGkfwk/cdrQB+tg7XuIz2IP7H2QFPXBq25b9caUGPog9LghtowCLm1HScNPVAZB1B2ewEbSVl7C7BOLqUcwD/W7b65EKvsUgrg78du4eNbU/hs/DZz794Yxz8N38BPewfxPWcXtNed23LfcLhj5WHX5+itMgEYXPdjDcAT1W3QNLqRb9o9gCpjH07oO6E0DEBpdUFJ1behG1OLwAaSY+CdXA6kHMBT5eO7lnOsAFIK4HYB24r/qbUk1Vu8NKgCXt8IYG1jHcHAOhYAFOqdUF13I7/as2sNKDd6cUrfBbmB2pNuyGwd0Oq7EFyjtmdyGvY0m43rgJBJJjVtQGoHpuKXWgAbndAm2Znvbt9mlkhwBF8g6GftQPJHr94LrF2QN3agUOfdNYAyQy9OVndCaRphYSltHhQYvXiwAgTxIFHStnwtA2AcUT3V3AFNY3tS3T8MjMaJbWenNxBAMBhgAK4HgaHlJeTbu5Fb144nTENJALAHWkMHNKZRqKzdrGOjNQ6iZ44ATM6Az0wVHKfsn23tSip8BPOpJjfm/MmbgLSOANbXOQ24uLQCx+Q4ZEY3jtU4cNoyumsAFWbqdHRAax6DzNwFra4XasMwzNMrCGwkZ0R3phMSB8CXXL3QNLQn3f1+NNwgpjfDbGwqqS/4sYRlLLKuRBCsSxvYAATHzG5B1vv0w49VcL3exZV78K/PgwwNP7nWDbndg+x6LwpMLbsHkHrUejc0Fg8UOi+0xhvIsXXjpw4PGR+T8suYYeKI8WeeoaTDR0A/ft2NoSVupO46g82PFXA9WGbZCAKrAW5VhFUEQW6NuQ02LSAgmm2zxugN4t7qCr7uH8Y3Lxsh17VCW+uF1u7aNYBqswcqvZtVv0p9LzTGERyzefBCgxsdSbDtkiG6MGOIjk3g70bGoWlwpcT9ucuLZdJ6G9SQXwM2yIwCLPrJpMK93djYIEubH74NP9aCPviFJTdIE1Itvgosri0xBdkwMYe/1Ntx9HwxNGUNeMLmYZpwt4boE8YBKA2dUNq6odT3sM8vPGrthcbWjrdcYU0eW4Kbn30j8youvpDKbs9CU+9KmfubrkFG2qKPN80wo3IQ/nUfGdm4Gs6/Qa190B/huM47sv0FAgGsBgNouz2P/9HggepCGR79qgzyKxacMLRDYaIhWbt7FVeoH0SesQvyml5oqrtQUNmHXNMAjhk68aSlFxdGdt6r/2woMxghPn0A+pdWUgafAPZrzk7cXOc0nn91AVikAl3CfawAywH2vQyqjEnh+eDD0sYylrCCFaxhGT7cWl3Hb5s78cwlE/7o/SI8du4qjnxZCqW+BYXG3b8L1uh6kW3xQG7rRUFVFwrLPSgwDEFe3Yfj1R7QcKxLY9u3B14evZ8ZjpWQPtI5Gxt4uqkztRA2ufB0cwsqJmYZhQRY0L8IrFLbjwOTquYgrX/nC3DacANYWgtg/O4c3m/rw3cuV+Oxj4tx5P1iZJ0pwh+eK4Jc34yT5t1rQKWuGznWXijNXhTqPKB3wyf1/TihG0SOkb6QxH0p6Zftk1sekPpL5+3Ql5LSMRzrwA5IJUBf84xAU+dOmcuua8epBjdUzY14eaAPw2TgXQdGAr7QewYacOBfWoNvKYAFHzC8BFSP3MW7TT341mULss8W4cjZi2ybd6YIxz4qhry0Fkprx66rYI3OBZm9F2q9F/nVXsjsfVAZunGyygOFJQwgfa6LhuT/vXsK1qlFNiQ/ENwAORqeT+f+m+t2Zkj+ZlpPer2c2oEpBFB9zQFljROP2zugNDvwWE0N/kNXOyyTU5i9M4/JlVnM+BcwvrKA1plpXOgfxC8cLjxjqsEfXanCI0U2HP+0Alnvf4VjH3yB7PcuIuf/XUL25wZkX2vbNYD5OidUNi80lV72PbjjDQPIMnUgv8INhcUT0oDse3E7+FZcOjTggZ6UxKY3NnQmD8JaNzTMuaCpdUFRR84JZZ0TqmttUNe0QUVDqWzNzCnNzVCamqDQ10NedQ2KMjtkVy2QXdIj56sqyC5U4PjZyzj+wSXkfViMY+9fxB++8wWyP6vA47omZj4hwzRNUM+38kZlWw8K7H2QGTv5VVLjjwdUG3tATmXwRDg1fTOOXBK/FZeKAakHflomacRf944lEUAOPIJPc80FxbV2KGrboKxphcreCqXNAZWlBSrzdShNjZBXN0Cmq4essgayEivyrpiRd9GAnC8rkfV5ObLPlbIqN+vMZQZg1vsX8cg7X+L4J6XQFtmhsXugMHdCZabecDdoMCpttbYeqEzdhx7AAz8xnQBsvPeA11qC9trh9pqbQUfgMVfTzqpfqoKVtjYevGYojNeh0DdyWq+iFvLSGqb1ci8bkfu1Hjlf6JD9WRmyPi3B8U+uMgCpHZh7tggE4GPvfo1jZ4qRe64KansXcwQhObWth0EoALnZiOiDrgEPxdIcbJGftj5oajt25xiABKEbmhoX1DUuqOwCfK1QmRxQGnj4quohr6yDoqQG8mIb8opMkH1tgOzLauRdqELOuVJkfXIVRz+6iuMfX0HOh8XIOXOZtQGz37uEbOoRv1eEPF0z8u2d0NR0Q2bugMreC5XVA6WpA1paM4YtVH44q+BDszgRaUHDzNzu4CN4YwCosTmhtrZBbW6F0tgCpaEZSl0DFJV1kFfUQnm1BspiG+SXIwHMPV+G7E9LcOzjEmR9XIrsj66wdiBpQOoJ535QhKx3LuOxi2YUWtpxorYXcksnFNQOtHq4KtncdagBPDTLsxGAbKFHhxeaawTSDlwNaT2Rs7ugpne1tvYIABX6JiiqGpn2EwAkDSi7ZETeV3qmAXM/r0LuZ1z77/gn5cj+pIxpwWNnLoU6I7lnSANewiMflUBd1ogT9h42mllu6QaN6WMTk4yuQwvgoVygkrUFdwIf3SOGj/Z5AJVW0oBOqCxtTAMSgDIdAdgAWUUtq4JlV7gqmHU+vqpmbUDWAfmsDNmfVDAAqTo+9lERsj7k3ZkiHP/gMo5+UIS8z43QVjmgtfYy0wlByJZtM7kPLYCHdoneN7pHk6cBbS4QgAqCj6+C5TyAsop6kFOUXYP8qh25xSbkXDIg+yKZX6qRzfeCcz6tZABSdZz1yRUc/7gYRz+8DNKGx85cRu77V/DYmVLIiutQSEZkm5eN62NmGcvhNMMcykXKqSNCr+amVn14ur4Hmhpq2G/D2TugETubG2qbGypLK3NkhKY2IAEor74e0oJ5ZTXILbUj76oNuUUW5F00IffLalA1nHOhkvWGWY/4fCnrFZMmzP6omGlC6hnLzl7BkXe/wpFPS6CoqkfBtQ6obJ2Qm7qhtfZDa/FAZeQmGhUYPSjkvxGsMnGv3w5aL/iJw/iZBoJvnYZGbWywebdVU/e2B58A6hYAVBiaQwDmVTVAVlYHWfk1yErsyCu2IveSmZliCMK8L3TIusDbA6k6PlfKOiakCQUIcz4owqPvfY0jHxYj66IRan0L8q1drCNCEGosvVAau9nrNa3Jg3wzfaSabITUZvSw/YNkiNbdDH8ujdruqf6ldFISJZ6gCwSDWA9uMAgJRnL/u+/W9iAUw0f7vAYU2n/UBlSZWqEwtEBR3Qy5rgmyquusLSgvp6q4jlXFsiIrZJfMkH1tQt5XRs4mSJ2Sz6s4bRiC8CpyPr7KBidQW/Cx9y/j0Y+uQFZkR6HZjXy7B3mmTqioXWjuYRAKqyJwAHZzqyccoDch/7N95+vU7BTUlAJI0PnWgyEACUZBC9La0D9yDm4dwjgACm1A1glh7UBHBIRcj7gBBCENMJBdqQFBmHeZXseZWXuQ2oRknA5VyzyE1C48/lEJb6IpxtH3LiPnfBXrFWvMHcwsQ6Nc2LwPEy3V4Qkt16Hm35IclCqYPla4F19RTxmAa+vrWPYHQFv/elgDCgCSFrxHnz1t7oOGDL2bORtpPYmzukOdEKYBeS2oNDrYeD7ShEodmWWuQ1HRyKpjAcK8YqqS7ci5aGIu92tjRNsw53wFss+VI+vTMuR8XIq8syXI+eAKsj8sYwMVZGWN0FhcrKrlwPOwV3P0ek78iu4gAPjvzBOH73Ot1OYj8AhA0oJCFSwGkCC8verHnzYRhF2Jna0TGqmzdjAApVqQqmIGodHBqmIxhPLyBk4TllC78BprF5I2pLYh10ExsLZhSBt+VsEM1bmflCGPjNYfXsWjH5Yg6ysTNJVNbMql1tTFdUZ4+AhIqo4F+FiVvE8HIzwUH6wm0ITqV9jSOcFRz/iF5v74AErBE44ZgGSK4ZzK3A7mTE6oTE4ojW1Q6luhqHZApXMwbSivbASDsJw6KPWQXyUzzTXWtiMQCUJqG8q+MCDvcz1yL1Qj6zwZrcuRQ29PzpWztyfZ56sgv2hFod6FQmMHCs3dUJs6oaQeMQPQy+YACxDux9Ewz1kmcHsleVNcd9IOTFkVnCgxAnjiLX2F/K+cQ7EhFICLsVUwWyAHoJqqRHM71AQiD6HKwEFIIAoQClUyVcvUOVGU1HIgFtdATm1DvoMi/5IDkXrKx86Xs9EzeV9UsnfJNFCB3EmdE6eMbpwwdUJj7ORMMmYv1KZ+brjVPu2E/MfaKczt0VfSxWzsCYDiBNC+ACJ1TH7TPwGNrSvsaFKQcByaICRMFOpkw6JoUIDW3IF8oxv5tBSawQmtvg0F1Q4GBQND72bTLWXVLVAYWiEzNCNH14isynrIS+qgLaqFuqgWucU1OFZsQ9bXFuR8boLmoh6Kc+XIPVfBXuVRhyX3QhkeL9Lje8YGVHa6cH5gED9r78UzlnZW9aosA1BVc3NAlOZBHDd24ajRhTxzO7QGFwqrOtnw/HzT0J6MB/znjnt70uGQljsd7wsApQkzT8/jdK0nDF4CAPNM1yG3NENhd7CxgfLaduTWuUBD9cnJ9A4oqCpm1XEL65xoDFQdX2c9Y0WpBbm6azhmrMWjlXZkX7VCWVQDzdU6qErq8K8vlSHrigUFxU1QfN2ARy+ZcMJgxf9yd6P55iza79zB6PQCxu4DZ4an8bjeiuPGJjzZeBP5ZV7kljtwytqLp6z9UFS4kF3hgtw2AJltCEcqO9MK4FO6GzBPpNfOJy1b6fG+BJASSZ2TN7tuREMowEhbK2lAbkuDAxRGN+TVbih0HaDJQDQBSG5tYx0VGrSgsTihMbci39SKQoMDWl0TlNUunKxw4skrzQy6ozo7HjHbcKzSgOxLZSiobkNOVRP+VbkNx3R2/G19J2x9s7g1u4KhlQeYXfRhYWMDS8urbELyZBD4B/cQ8q7WQF07hKd1bSxNRy39yLFPQmOcgKq8F3k6F3Ls7WkD8HXHzJ6396Tw0fG+BVBILH2r9/mm/tggWjvZCBVa9Iccrb3HBoqau5Bv7kahlSb+tENudkJmakOesZVtlXz7UG104mhVE45XNUNe0QJtRSsKy1ugLWuGprIFmupWqIsdoNd5P2hoRtH4BG6t+jHjW8Psyhpb0ZeWmVxcpwV+aWXBNeC+n01IrrkPfMfRjqO2YchNA9BUdUJd3g6FjtqoPWzxS5oznOoh+d+3jqNxOrXfexPKaifbfQ8gZYpMOhWTc3ihaQAaW3eEO1HVhpP6dpy0uFBodyG/xgmNvQVKSwMU5nqQiURj7mJwKqxdyLN2MiezdUFup3ke1B5sQo6xGSr6NJe9D0qdF8qr3dBe9eL7DW24PDqP+w+AxcVl3PXNwgc/a7cuUw8yEMAyApjFKlbWltk8UJqHTOsMLgWAS6PzeKXWDXVlPZsRV1A7AVVFP/JK3OztSaoAfN56C2U3FtLyWbOdgCfccyAAFBJLYwrr7izgFx03UGjjv+NWPwDFNS/ybD3IsXSBhkrRsKmTFi8et3hx0tKHAouXndPYvSAIZaZ25BraINPTKJp+0DvcAlMXckxNeKTaghNmO37VOYaquwAt33IXG/DRKkikSFY3sBBYwRKbdbwGn38JCHDr/FLriqaY04pbWKf5oYuAbx5LG0HUzK3j71pvoUDXiRx9DwqsAzhtHkiqBsyvGsHPHdOou73Mxl8KctvP2wMFoFiQ8/51lE7cww86B/BdRzeeqHGyUdFyMy2D64HaOgitZQRaekVm6OKXSOtAgdmJk4ZWnDa241mLm61e+oTJhe/Wu/B67yBK7t5jc4pXgz42wZ30G/xrgJ8bSEEVLfXaubUW/GxNmrV1WmOQg5BgDLCFkAJY8y0yjUj+A7RGDdYwvR6A8fYyXndO4BnT7mfFfdM0hjfbplFy4wHmfdyCTGI57ff9AwtgSLA06dy/jr75B6icnMG/jE7i77yj+LNWD/64zo0TNR4U2LpRaOvE07Xd+E6jFz90DOEn3VN4a+A+Ls9OwOXzc0tFkk2W1jliwBBIAXbArWNECHFrbW3Qcr60HIgfWCbfdEOQfFFLMMAWR2Lr0bDmYJA7Jj+kRckFqb8SwBLWMLiwhorx+3in7w5ed07ixboxPGsdwePGQah1AyjQD+Jp0zC+ZxvDi7U32We6/sU7i4qbDzD4wMc/DCFpHLidgw/ggRN5JsFiCWQAFEsjs592CWQATLvIMxGKJZABUCyNzH7aJZABMO0iz0QolkAGQLE0Mvtpl0AGwLSLPBOhWAIZAMXSyOynXQIZANMu8kyEYglkABRLI7OfdglkAEy7yDMRiiWQAVAsjcx+2iWQATDtIs9EKJZABkCxNDL7aZdABsC0izwToVgCGQDF0sjsp10CGQDTLvJMhGIJJBdA19s4cjQXZ1ziKCT7M6V45dVSzEhOp/awA2eO5uLIruLlwnilKt5Hfu+g8tVcHDnbsXlWtiKnzUPZmg8+rvjp3iwYPl8JZbeZbOLHsQmAfORUeGLHC3mm6mVEZIxl9mVUhuiihL0NMY90DwsrVFA8HOLwE+xHxBc/X5IrfBwJhSi5BZR3aV5yRfmVXKcH66j4ujQ80XEUgNuTwZGj4nSJwo3a3Um+JYHEylec9O+kbLYGYKjgeCAFAF1vRwidg0sALgyvVCNGQyjKNJ9h6T0AJ8ydZFK4d1sacKYDZ0ijhQpbHL+Qt5dxxsVrxKiHT5Qn6W6cAty69gwDGJJlgoc2Qnkk8BdLtlz44fgoK5HlTGfEspFmNvHxrgBkQZMweUBdZ0XVHANJgDE6EcxvLI2xXwBkSeZA4womLGRWAKGHkssbl5/4+Y2QQBIBjAg3dCA8INHNIS6dkUCFbova4cOJyCt/LlSD0U1h2UQFscmJnQPIg7LVpyu2RotRYPsKQLH0EgmZuxZfFpTPMBRSf69UlXJt1IhCFcct2t9E04Y1YgzZ8sEIfmJpPFFMQNSDQuqPa2pI8xDveLM4dg5gREoFtbzVJ0tys/hwXwAYHxapoJmAY0IRS1PwGY0q2M0AlrTBQ80CQXDbvZ9qqrf5Jkb8dqtQS4mVRyztn3oNKG03nO3g2wFSwSQ4jlDjguBibLcN4NZhkcIT+ziG5hA99dFPtBC/9OHjoYil1eIBGOWXD1ssOzHsfDgsH+zeGP5jiFh6StCIFE4INlGeQ+d4LR4tAy6v0eelMUUfJ0EDxhB0PIjEAiOoowQeVvHhTAuJ3nkmQ9WGuCCFYDfZhgrn1ZdZh4uDNgxp6Lq48ChMXgYxC2U3ACZMr/AwJFAEEmUSM32S5kKoLMTwR6Rj52WzSwB5+GIVbJSQxSnmBcUA5MOQCEaqnc64dp5JoS0T7tGK0xJvP5wurgCE+Ds4ex+rBrl8vFLFnYsozET5j7rGxxX1QG5Xo23Xf5y88+l75VXOZMblX1xm0vsE2cSzkUr9h493DqBIRUth4Y5fRmUVZ5iO1nQJMhNPe+6ipxVXS4XlELkn5C0CiEghc2GGNSFrL4keROn1iAgEAKuoQU9VNw/gJg9hpJylVT7FkAwARQ+DkE7BkOt6O1xFR2QoUjYRlzY52CGAb7NeW8QTL46IJTwsoOiufzoBDBdKpdhMJE7vJvscTOH8xPIuBU4KpHAP54+vIkPAigpd8Mi24bSHbPsR16UHvP9tgBxVhvQwnOXfVEkBlEYXOk41gNIMiTSDVPCUpljnQmllO2kEUCxEyYMRmaZ4RzwcIVji+IvQ3LEKRASZOE0suNN9j8QAAAMXSURBVFj+6cIOAdwsrXGyEHVanE6hVpCysIXjUBsyKoJNV0iVgrLZMRdDvKc/HL80nPAVofEeneh4hSS6N2qXL/RQgWy1QPn7NhOu6EEUw+JirxsTaExxwVKaI+AVZ2Kr6RXu2a5/4b44W2k643hLvRkmJGgpOFssqCi7lTQcUc42KwwhLXH9hcOKrvrDhR1V9YRvC+/xBRDll49bej6iehXSGQ4tvCctWHZMwG5VnkLbk5fjZg/KVq+HHlQ+qdJ0hnMg2ePSLZWHxFPMw03agLxAQsJMAE7M4ONVx5Jw6J2yMMokAVgMKCEtmwhHgCFakwppEtm8YqadT6O0UABwYAsQiG8WAEqg/ci7JO3h8KTyFofN7W/evAmHL7wijQpl5s7WRiNJ0hkVTuhEqgCMetLD4HBCS2Rv4gooLNxQasNtG7FBWwArAYBM+AIQTDixC1pIWwhqcdT8vuAnFqCclzuYEWskIX18ocQMm7/GeqtCOmPEHQmgGDrxfqwbhYcnFvxCxuJZHoTw+DKMqpWE66LtngMYVchhAEXJTLjLCjqqMHhBC1WDULgUUgIAuWs8dFFpo5vD4cYHK5xcQUtGm4nCfri9cLhx4RLgEz1UMSGlAMUFG5GP3QG4+UMl5Cucn7hplKZTuDXmlgsvYVgx70vYCYlVBW0uoMh44vgXCivWU5gIQL76o4xKqyJB+HGrnciEhY/4+AiseAIMgSo8MNK3HkJ+RA+SkJ6YD0IIOql8+GNRPJG2P6HGidaAQnyx/Qv3xdmK0h0WjORBibggPeDSHU9+Ut/i4wRtQA5AJkBBwEwwsas9LlBBvYszGi2smRka/REnnE0ApHgEYXMZFgotTnji3CbaD+UxHI4QTxScfBopfsFPLOFHXpPIhgqdxSmWjxTI6ARLH7xoH9s7Q2mkEeqCrTnibl4mMR+iCI8pATAihofrIKQVwzDGEgAHw+79xAr7YTmXQAM+LCLI5HMvJZABcC+ln4l7/38rLlNGh1sCGQ14uMt33+cuA+C+L6LDncAMgIe7fPd97jIA7vsiOtwJ/P8TNrp3fjMdngAAAABJRU5ErkJggg==;" vertex="1" parent="1">
          <mxGeometry x="600" y="221" width="160" height="119" as="geometry" />
        </mxCell>
        <mxCell id="QQG2cU5XAlkEwUXfJwXq-26" value="导入" style="endArrow=classic;html=1;" edge="1" parent="1">
          <mxGeometry width="50" height="50" relative="1" as="geometry">
            <mxPoint x="519.8899999999999" y="280" as="sourcePoint" />
            <mxPoint x="600" y="280" as="targetPoint" />
          </mxGeometry>
        </mxCell>
        <mxCell id="QQG2cU5XAlkEwUXfJwXq-54" value="" style="shape=umlActor;verticalLabelPosition=bottom;verticalAlign=top;html=1;fillColor=none;" vertex="1" parent="1">
          <mxGeometry x="510" y="60" width="38.67" height="80" as="geometry" />
        </mxCell>
        <mxCell id="QQG2cU5XAlkEwUXfJwXq-56" value="访问" style="edgeStyle=orthogonalEdgeStyle;rounded=0;orthogonalLoop=1;jettySize=auto;html=1;endArrow=classic;endFill=1;" edge="1" parent="1" source="QQG2cU5XAlkEwUXfJwXq-55" target="QQG2cU5XAlkEwUXfJwXq-25">
          <mxGeometry relative="1" as="geometry">
            <Array as="points" />
          </mxGeometry>
        </mxCell>
        <mxCell id="QQG2cU5XAlkEwUXfJwXq-55" value="" style="shape=image;verticalLabelPosition=bottom;labelBackgroundColor=#ffffff;verticalAlign=top;aspect=fixed;imageAspect=0;image=https://ss3.bdstatic.com/70cFv8Sh_Q1YnxGkpoWK1HF6hhy/it/u=2735083938,4246579015&amp;fm=26&amp;gp=0.jpg;" vertex="1" parent="1">
          <mxGeometry x="630" y="40" width="99.78" height="99.78" as="geometry" />
        </mxCell>
        <mxCell id="QQG2cU5XAlkEwUXfJwXq-57" value="&lt;font style=&quot;font-size: 18px&quot;&gt;Citrix&lt;/font&gt;" style="text;html=1;strokeColor=none;fillColor=none;align=center;verticalAlign=middle;whiteSpace=wrap;rounded=0;" vertex="1" parent="1">
          <mxGeometry x="619.89" width="120" height="40" as="geometry" />
        </mxCell>
        <mxCell id="QQG2cU5XAlkEwUXfJwXq-59" value="接入" style="endArrow=classic;html=1;" edge="1" parent="1">
          <mxGeometry width="50" height="50" relative="1" as="geometry">
            <mxPoint x="318.8899999999999" y="280" as="sourcePoint" />
            <mxPoint x="399" y="280" as="targetPoint" />
          </mxGeometry>
        </mxCell>
        <mxCell id="QQG2cU5XAlkEwUXfJwXq-61" value="&lt;font style=&quot;font-size: 14px&quot;&gt;安全域&lt;/font&gt;" style="text;html=1;strokeColor=none;fillColor=none;align=center;verticalAlign=middle;whiteSpace=wrap;rounded=0;dashed=1;fontStyle=3" vertex="1" parent="1">
          <mxGeometry x="970" y="200" width="70" height="40" as="geometry" />
        </mxCell>
        <mxCell id="QQG2cU5XAlkEwUXfJwXq-63" value="&lt;span style=&quot;font-size: 14px&quot;&gt;TBDS&lt;/span&gt;" style="strokeWidth=2;html=1;shape=mxgraph.flowchart.database;whiteSpace=wrap;fillColor=none;" vertex="1" parent="1">
          <mxGeometry x="800" y="221" width="80" height="80" as="geometry" />
        </mxCell>
        <mxCell id="QQG2cU5XAlkEwUXfJwXq-99" style="edgeStyle=none;rounded=0;orthogonalLoop=1;jettySize=auto;html=1;endArrow=none;endFill=0;" edge="1" parent="1" source="QQG2cU5XAlkEwUXfJwXq-75" target="QQG2cU5XAlkEwUXfJwXq-63">
          <mxGeometry relative="1" as="geometry" />
        </mxCell>
        <mxCell id="QQG2cU5XAlkEwUXfJwXq-104" value="Table TEMP" style="shape=table;html=1;whiteSpace=wrap;startSize=20;container=1;collapsible=0;childLayout=tableLayout;fixedRows=1;rowLines=0;fontStyle=1;align=center;fillColor=none;" vertex="1" parent="1">
          <mxGeometry x="800" y="400" width="80.22" height="60" as="geometry" />
        </mxCell>
        <mxCell id="QQG2cU5XAlkEwUXfJwXq-105" value="" style="shape=partialRectangle;html=1;whiteSpace=wrap;collapsible=0;dropTarget=0;pointerEvents=0;fillColor=none;top=0;left=0;bottom=1;right=0;points=[[0,0.5],[1,0.5]];portConstraint=eastwest;" vertex="1" parent="QQG2cU5XAlkEwUXfJwXq-104">
          <mxGeometry y="20" width="80.22" height="20" as="geometry" />
        </mxCell>
        <mxCell id="QQG2cU5XAlkEwUXfJwXq-106" value="K1" style="shape=partialRectangle;html=1;whiteSpace=wrap;connectable=0;fillColor=none;top=0;left=0;bottom=0;right=0;overflow=hidden;" vertex="1" parent="QQG2cU5XAlkEwUXfJwXq-105">
          <mxGeometry width="18" height="20" as="geometry" />
        </mxCell>
        <mxCell id="QQG2cU5XAlkEwUXfJwXq-107" value="Value 1" style="shape=partialRectangle;html=1;whiteSpace=wrap;connectable=0;fillColor=none;top=0;left=0;bottom=0;right=0;align=left;spacingLeft=6;overflow=hidden;" vertex="1" parent="QQG2cU5XAlkEwUXfJwXq-105">
          <mxGeometry x="18" width="62" height="20" as="geometry" />
        </mxCell>
        <mxCell id="QQG2cU5XAlkEwUXfJwXq-108" value="" style="shape=partialRectangle;html=1;whiteSpace=wrap;collapsible=0;dropTarget=0;pointerEvents=0;fillColor=none;top=0;left=0;bottom=0;right=0;points=[[0,0.5],[1,0.5]];portConstraint=eastwest;" vertex="1" parent="QQG2cU5XAlkEwUXfJwXq-104">
          <mxGeometry y="40" width="80.22" height="20" as="geometry" />
        </mxCell>
        <mxCell id="QQG2cU5XAlkEwUXfJwXq-109" value="K2" style="shape=partialRectangle;html=1;whiteSpace=wrap;connectable=0;fillColor=none;top=0;left=0;bottom=0;right=0;overflow=hidden;" vertex="1" parent="QQG2cU5XAlkEwUXfJwXq-108">
          <mxGeometry width="18" height="20" as="geometry" />
        </mxCell>
        <mxCell id="QQG2cU5XAlkEwUXfJwXq-110" value="Value 2" style="shape=partialRectangle;html=1;whiteSpace=wrap;connectable=0;fillColor=none;top=0;left=0;bottom=0;right=0;align=left;spacingLeft=6;overflow=hidden;" vertex="1" parent="QQG2cU5XAlkEwUXfJwXq-108">
          <mxGeometry x="18" width="62" height="20" as="geometry" />
        </mxCell>
        <mxCell id="QQG2cU5XAlkEwUXfJwXq-114" value="" style="endArrow=classic;html=1;dashed=1;" edge="1" parent="1" source="QQG2cU5XAlkEwUXfJwXq-119" target="QQG2cU5XAlkEwUXfJwXq-127">
          <mxGeometry width="50" height="50" relative="1" as="geometry">
            <mxPoint x="120" y="920" as="sourcePoint" />
            <mxPoint x="520" y="920" as="targetPoint" />
          </mxGeometry>
        </mxCell>
        <mxCell id="QQG2cU5XAlkEwUXfJwXq-119" value="&lt;font style=&quot;font-size: 24px&quot;&gt;&lt;b&gt;&lt;u&gt;1999&lt;/u&gt;&lt;/b&gt;&lt;/font&gt;" style="ellipse;whiteSpace=wrap;html=1;aspect=fixed;fillColor=#CC99FF;shadow=1;" vertex="1" parent="1">
          <mxGeometry x="400.22" y="840" width="80" height="80" as="geometry" />
        </mxCell>
        <mxCell id="QQG2cU5XAlkEwUXfJwXq-123" value="" style="endArrow=classic;html=1;" edge="1" parent="1" source="QQG2cU5XAlkEwUXfJwXq-115" target="QQG2cU5XAlkEwUXfJwXq-119">
          <mxGeometry width="50" height="50" relative="1" as="geometry">
            <mxPoint x="120" y="920" as="sourcePoint" />
            <mxPoint x="520" y="920" as="targetPoint" />
          </mxGeometry>
        </mxCell>
        <mxCell id="QQG2cU5XAlkEwUXfJwXq-115" value="&lt;font style=&quot;font-size: 24px&quot;&gt;1050&lt;/font&gt;" style="ellipse;whiteSpace=wrap;html=1;aspect=fixed;fillColor=#CC99FF;shadow=1;" vertex="1" parent="1">
          <mxGeometry x="240" y="840" width="80" height="80" as="geometry" />
        </mxCell>
        <mxCell id="QQG2cU5XAlkEwUXfJwXq-124" value="" style="endArrow=classic;html=1;" edge="1" parent="1" source="QQG2cU5XAlkEwUXfJwXq-125" target="QQG2cU5XAlkEwUXfJwXq-115">
          <mxGeometry width="50" height="50" relative="1" as="geometry">
            <mxPoint x="120" y="920" as="sourcePoint" />
            <mxPoint x="230" y="920" as="targetPoint" />
          </mxGeometry>
        </mxCell>
        <mxCell id="QQG2cU5XAlkEwUXfJwXq-125" value="&lt;font style=&quot;font-size: 24px&quot;&gt;&lt;b&gt;&lt;u&gt;1000&lt;/u&gt;&lt;/b&gt;&lt;/font&gt;" style="ellipse;whiteSpace=wrap;html=1;aspect=fixed;fillColor=#CC99FF;shadow=1;" vertex="1" parent="1">
          <mxGeometry x="80" y="840" width="80" height="80" as="geometry" />
        </mxCell>
        <mxCell id="QQG2cU5XAlkEwUXfJwXq-127" value="&lt;font style=&quot;font-size: 24px&quot;&gt;5999&lt;/font&gt;" style="ellipse;whiteSpace=wrap;html=1;aspect=fixed;fillColor=#CC99FF;shadow=1;" vertex="1" parent="1">
          <mxGeometry x="560.22" y="840" width="80" height="80" as="geometry" />
        </mxCell>
        <mxCell id="QQG2cU5XAlkEwUXfJwXq-156" value="" style="shape=image;verticalLabelPosition=bottom;labelBackgroundColor=#ffffff;verticalAlign=top;aspect=fixed;imageAspect=0;image=data:image/png,iVBORw0KGgoAAAANSUhEUgAABWUAAADFCAYAAAA8N5BjAAAgAElEQVR4Ae2dYbajIAyF37q6oK6nq+lK5l8X4xy0gQQTCIq2lTvnvKlVBPKRCxip/v39/U34AwP4AHwAPgAfgA/AB+AD8AH4AHwAPgAfgA/AB+AD8AH4AHwAPnC8D/z79y/EY/8m/AMBEAABEAABEAABEAABEAABEAABEAABEAABEAABEDiWAMViEZQ9ljNyBwEQAAEQAAEQAAEQAAEQAAEQAAEQAAEQAAEQAIGZAIKycAQQAAEQAAEQAAEQAAEQAAEQAAEQAAEQAAEQAAEQOJEAgrInwkZRIAACIAACIAACIAACIAACIAACIAACIAACIAACIICgLHwABEAABEAABEAABEAABEAABEAABEAABEAABEAABE4kgKDsibBRFAiAAAiAAAiAAAiAAAiAAAiAAAiAAAiAAAiAAAggKAsfAAEQAAEQAAEQAAEQAAEQAAEQAAEQAAEQAAEQAIETCSAoeyJsFAUCIAACIAACIAACIAACIAACIAACIAACIAACIAACCMrCB0AABEAABEAABEAABEAABEAABEAABEAABEAABEDgRAIIyp4IG0WBAAiAAAiAAAiAAAiAAAiAAAiAAAiAAAiAAAiAAIKy8AEQAAEQAAEQAAEQAAEQAAEQAAEQAAEQAAEQAAEQOJEAgrInwkZRIAACIAACIAACIAACIAACIAACIAACIAACIAACIICgLHwABEAABEAABEAABEAABEAABEAABEAABEAABEAABE4kgKDsibBRFAiAAAiAAAiAAAiAAAiAAAiAAAiAAAiAAAiAAAggKAsfAAEQAAEQAAEQAAEQAIEvJ/B6vab017+yKe9X/8yRIwiAAAiAAAiAAAiAwIoAgrIrJNgBAiAAAiAAAiAAAvsJPO+36Xbz/93v9+n+eEzP52tCWGw//1/P4fV8TI/gQ39/U5iwq3+323R/PDf6y2t6Pu7T7Wbk/bcn71+nj/qDAAiAAAiAAAiAwPEEEJQ9njFKAAEQAAEQAAEQGJDA824Fu3z7b7f79ER0dkTPme5WENbcf5vuDc7yet7LwV5ezu0+PeCHA/ohTAYBEAABEAABEDiaAIKyRxNG/iAAAiAAAiAAAkMS2BuUpZWRN0TEvtJ/Xq/n9Agrm7sHLJ8bgrJLoN/jK6/HTV91ywOxq+0Q9P3KZkClQAAEQAAEQAAEQOBnCSAo+7NNh4qDAAiAAAiAAAh8M4FeQdkwWUNA7Bta+jWFRwrcbzyoeTtgFen2oGzNV7YFZGll9xG2fkO7og4gAAIgAAIgAAIg8BkCCMp+hjtKBQEQAAEQAAEQuDiBnkHZv7/7hIWKn3SY1/RQn716RKBSBmVv9/v0eD6n5/uv/pzZh/6M2dfDfmTB+9m0oYxHeM7saqXsOzCLuwOfdEKUDQIgAAIgAAIgcDECCMperEFhDgiAAAiAAAiAwHcQsIKy+k/Mw0uX+ApMWp2YPhEP+2S7nhyUDUHS4nMRrPoEf9ED+JY//t2UIO5LBobDBcPyd0QQ+pPtirJBAARAAARAAARA4HMEEJT9HHuUDAIgAAIgAAIgcGECVhBMD8q+QTzv5vM+i+ddmON3mGYFQT8YpDRXvmp12hBktXwRdwe+wyVRCxAAARAAARAAgZ8ngKDszzchDAABEAABEAABEPhGApuCspMVPPub/hAM+2Azf2FQ1vQVJShrBXCLPmXZrK/E/WDjoGgQAAEQAAEQAAEQ+EkCCMr+ZLOh0iAAAiAAAiAAAt9OYFtQ1gqENQZlX+FxCPfptnoO6m263cIzSl91fK/HdL/f138Pfq5RzvsZpTxlvUBKkV6oZdX//nhOL2/mHjtez2l+Vust8LlNt3vIP+xL9lvPWQ3PfBWcQt3IlEM/rQC+EjQ1Vr3WVl/rPqwEfQ+1E5mDAAiAAAiAAAiAwDUJICh7zXaFVSAAAiAAAiAAAh8moAe0/qZyIMwOypbPI2Nfc3AxTPCqfyE4W4oeGoE8WrH7ehZeCBXLrz0bleodPl/T815+rm5u0+3+mKrx5Zod2rN8w3NWrdWl0TaDsfaMVm5mr22rflr5BoOaT700Nn9/U3GBbS/7kA8IgAAIgAAIgAAIXJwAgrIXb2CYBwIgAAIgAAIg8BkCm4KyVqDNEwgzX85kBA/fwUUzwGYE8uagrHXMCFiaZVDThLqvVvWW650CtJWVm1ZdQ6WsY18flLWD9yprw86tQdnaedSs+AQBEAABEAABEAABELAJIChrs8EREAABEAABEAABENhMYEtQ1jrn70/5SbqomfVTdk9g0whqGoG8v/DzfiP4mgKleblGGbMNe+pO5RTyt+y4P6aHFQj+yqDsa3rRYyks/mpEdioHn4UfyS+WPyIoKznhGwiAAAiAAAiAAAhsIYCg7BZqOAcEQAAEQAAEQAAEKgSaAlrh+aVWgNCxStYq6+92n5708NVSQK/hJ+8y8Bqev/p+pmqh/vM5asDQXvFJ5cT875VgsGZDaCMrKGsFNsP+rwjKtgWr5+fgWj65ZQV24Rx6hIVVHPaDAAiAAAiAAAiAAAjUCSAoW2eEFCAAAiAAAiAAAiDQTMAMlP69XyZFL5UqBQf/as+gLQQdm4KUykrTSjDzpr3QqvgYgrYy1PzDk2cL9VJXcBbSp8DvY3o+w0rU5/R8hhecPbKXdVnBY8WmZk+xTvAFZV3P1Z2s+oeVxrfVi99ez0d5NbQaYLfswH4QAAEQAAEQAAEQAAGNAIKyGhXsAwEQAAEQAAEQAIGdBOygLP3kvvZ5m+7FN3EtFdTLKQUL9QDdKqBZCmaWgnKFFZbyNL0ec6BUJly1hPUCqnmFa566ZEcISJZedhbzsurqPT9m1LDhDMregp88syCyUkyRwxKcvTkfTbHyFaU47AIBEAABEAABEAABECgTQFC2zAdHQQAEQAAEQAAEQGATAT1YWgvEvoNj9+dETx0oF24E7ipBTbVu+cpaM4hXD0Sq+eerfs3gbT3/aTLs1oKsph2OVcgR/vcGZWm1b1jxen+WI8xWu6Q8PP7Zwi0CxAYIgAAIgAAIgAAIgEBGAEHZDAi+ggAIgAAIgAAIgEAPApsDYPNzYJ01MAKO80/an+Gn+Pqf+vxab1A2T6dU1VzJyoPFRt3V1a6rMqwg6d/Ei5hPs8qpvjyNF2qV5wkg83xatl/Tg57XS5+OlazlVayWHVow9jY9HvdJC9iWy2ixEWlBAARAAARAAARAYFwCCMqO2/awHARAAARAAARA4EACdlCWnimrBcJoX1j1WK+cGfysPKdWC7T95UFKK5jpqZh1LgvomnX35D8/SpdYyc9VwNBRFwdp40VsRwZlC7VqfXavyOo1PR83Ndga/YJuDBjsnE0kSsUXEAABEAABEAABEAABSQBBWckD30AABEAABEAABECgCwErKCuChq+nEewLgcZ6wM8MbP5wUFbwKbSEi2843wgs/jVFFq0VpvU2Kpiw85BVp7/JZ9vr/VKz+zQ/S/Z2n19w9mTPzdD965M270SG00EABEAABEAABEDgiwggKPtFjYGqgAAIgAAIgAAIXIeAO2g4FYJr+erVDI8eNJMrR+Pqx2qg9j6Jxbl7gpmOc826O4Olbr6OumRYla9WG304QGnZVvEbxUB1l8qYrXZWT8JOEAABEAABEAABEAABFwEEZV2YkAgEQAAEQAAEQAAE2gioAa38ZVeUpfnSq/KqRyuwWXumrP6s2dckXhNlBfwcQVOrXmIF5478AzaL76p6O8tZmuhLg7LmC8+yADv5WdOn8TK1FeCmTJEYBEAABEAABEAABEDgTQBBWbgCCIAACIAACIAACBxAwAoaWj/PNwOZf8rLq6i+XQKOlFn2aeVdXSlpBTD/JmH75vxDPY2AofbIB6ucpuCiZdOHV8qawfwOQVmDWxO2zKXwFQRAAARAAARAAARAIBFAUDaxwBYIgAAIgAAIgAAIdCPQGpS1A41/058VCLWCclb6FuuMoFz1WbdWnVYBUyuwWghCU/2tuml2W2mbootfGpS1bNv9+AKjbTS+1Cb4BAEQAAEQAAEQAAEQaCKAoGwTLiQGARAAARAAARAAAR+B9qBs4aVU1mMPCs+jFatSS1V+ZY8toLRmwK8QJC7URwssW4z+ikFFI2BoMbLs6BKUzVb/ErvNn8/pfrtP/GVbZlZm8Nt65MVrej3FAyr0rF+hDvpzid0+peeMvSAAAiAAAiAAAiAAAowAgrIMBjZBAARAAARAAARAoBcBK+BYC2xZ55krVK2gYwhS3h+TGYd7PafH/TZtyTdMIP/ewcM5zBcCu8+HGcwL6VW7S4HFv9t0f76m1+sdSJzLuE8384Vlxk/2LT5NQVn7GbaBH9Uz1PX5eMpn8zY5FAs4327T/fGcA7SEYAoMYrvpgdPAWjeNVvuGfINfhLyWyoV6U74mX6ySbWpJJAYBEAABEAABEACBGgEEZWuEcBwEQAAEQAAEQAAENhCwgqtqcJLnXwpUqoExCrbZQbo5KHq7Tbf5L09nPBfVCmaaQdE8X/ZdrfdidOlZuqHe3j89EFlYfWyewBsjbbvrWbA15WZtsaBsg+2CkWmXz09EXrEOho9YZmA/CIAACIAACIAACIBAlUCYd4V/f7RRPQMJQAAEQAAEQAAEQAAEqgQ2B2WnaSoFAPWg7p5gnhFws4KyIbAbg3WeoKmRPyNosdIDhOsydSbvAiw7zOAlqxjfLAXLOY9PBmWLZW8Nytbbj2PCNgiAAAiAAAiAAAiAgI8AxWIRlPXxQioQAAEQAAEQAAEQcBGwAo3FAGLMuRRkNX6mP9nPAi0HN42gWyGYWQoay7KMvKOdacOfJw/KLo8OSLkoWwU7lNTFXa46FgOjxezDst7pzgO8Ddu3e+2xCRuCsvMjKmp1xnEQAAEQAAEQAAEQAIEtBBCU3UIN54AACIAACIAACIBAhcC+oGzhZ/chUFdY5fl63qeb8aImGTD9m26ll0pVgpnVZ8hWg4QKQMfzUhcbblM9CPnOv2KHUovirplvKVi6Kyg7zc92vd/Cs3558NneLj43OLPk9Sg9k5eVEZ5naz6MOMsUX0EABEAABEAABEAABDYRQFB2EzacBAIgAAIgAAIgAALfTiC8fOs5PVd/6QVPRQu8wcxXVga9PaqYueNgeGnW1ro7st+dJLf7+YwvztqdN2WgMgi8nW1I+aw+lxd7qXxXabEDBEAABEAABEAABEDgCAIIyh5BFXmCAAiAAAiAAAiAwK8T8AZlf91O1B8EQAAEQAAEQAAEQAAEPkAAQdkPQEeRIAACIAACIAACIPD1BBCU/fomQgVBAARAAARAAARAAAR+lwCCsr/bdqg5CIAACIAACIAACBxHAEHZ49giZxAAARAAARAAARAAgeEJICg7vAsAAAiAAAiAAAiAAAgoBBCUVaBgFwiAAAiAAAiAAAiAAAj0IYCgbB+OyAUEQAAEQAAEQAAErkUAQdlrtSesAQEQAAEQAAEQAAEQ+CoCCMp+VXOgMiAAAiAAAiAAAiDwJQQQlP2ShkA1QAAEQAAEQAAEQAAErkgAQdkrtipsAgEQAAEQAAEQAIG9BBCU3UsQ54MACIAACIAACIAACICASQBBWRMNDoAACIAACIAACIDAwAQQlB248WE6CIAACIAACIAACIDA0QQQlD2aMPIHARAAARAAARAAgV8k8HpNz+dz/fd6/aI1qDMIgAAIgAAIgAAIgAAIfBUBBGW/qjlQGRAAARAAARAAARAAARAAARAAARAAARAAARAAgasTQFD26i0M+0AABEAABEAABEAABEAABEAABEAABEAABEAABL6KAIKyX9UcqAwIgAAIgAAIgAAIgAAIgAAIgAAIgAAIgAAIgMDVCSAoe/UWhn0gAAIgAAIgAAIgAAIgAAIgAAIgAAIgAAIgAAJfRQBB2a9qDlQGBEAABEAABEAABEAABEAABEAABEAABEAABEDg6gQQlL16C8M+EAABEAABEAABEAABEAABEAABEAABEAABEACBryKAoOxXNQcqAwIgAAIgAAIgAAIgAAIgAAIgAAIgAAIgAAIgcHUCIigbvuAPDOAD8AH4AHwAPgAfgA/AB+AD8AH4AHwAPgAfgA/AB+AD8AH4wLE+8O/fvxCL/bt6ABr2gUATAWiiCRcSD0AAmhigkWFiEwFoogkXEg9AAJoYoJFhYhMBaKIJFxIPQACaGKCRYWITAdIEgrJN2JB4BAIkjhFshY0g4CEATXgoIc1IBKCJkVobtnoIQBMeSkgzEgFoYqTWhq0eAtCEhxLSjESANIGg7EitDltdBEgcrsRIBAIDEIAmBmhkmNhEAJpowoXEAxCAJgZoZJjYRACaaMKFxAMQgCYGaGSY2ESANIGgbBM2JB6BAIljBFthIwh4CEATHkpIMxIBaGKk1oatHgLQhIcS0oxEAJoYqbVhq4cANOGhhDQjESBNICg7UqvDVhcBEocrMRKBwAAEoIkBGhkmNhGAJppwIfEABKCJARoZJjYRgCaacCHxAASgiQEaGSY2ESBNICjbhA2JRyBA4hjBVtgIAh4C0ISHEtKMRACaGKm1YauHADThoYQ0IxGAJkZqbdjqIQBNeCghzUgESBMIyo7U6rDVRYDE4UqMRCAwAAFoYoBGholNBKCJJlxIPAABaGKARoaJTQSgiSZcSDwAAWhigEaGiU0ESBMIyjZhQ+IRCJA4RrAVNoKAhwA04aGENCMRgCZGam3Y6iEATXgoIc1IBKCJkVobtnoIQBMeSkgzEgHSBIKyI7U6bHURIHG4EiMRCAxAAJoYoJFhYhMBaKIJFxIPQACaGKCRYWITAWiiCRcSD0AAmhigkWFiEwHSBIKyTdiQeAQCJI4RbIWNIOAhAE14KCHNSASgiZFaG7Z6CEATHkpIMxIBaGKk1oatHgLQhIcS0oxEgDSBoOxIrQ5bXQRIHK7ESAQCAxCAJgZoZJjYRACaaMKFxAMQgCYGaGSY2EQAmmjChcQDEIAmBmhkmNhEgDSBoGwTNiQegQCJYwRbYSMIeAhAEx5KSDMSAWhipNaGrR4C0ISHEtKMRACaGKm1YauHADThoYQ0IxEgTSAoO1Krw1YXARKHKzESgcAABKCJARoZJjYRgCaacCHxAASgiQEaGSY2EYAmmnAh8QAEoIkBGhkmNhEgTSAo24QNiUcgQOIYwVbYCAIeAtCEhxLSjEQAmhiptWGrhwA04aGENCMRgCZGam3Y6iEATXgoIc1IBEgTCMqO1Oqw1UWAxOFKjEQgMAABaGKARoaJTQSgiSZcSDwAAWhigEaGiU0EoIkmXEg8AAFoYoBGholNBEgTCMo2YUPiEQiQOEawFTaCgIcANOGhhDQjEYAmRmpt2OohAE14KCHNSASgiZFaG7Z6CEATHkpIMxIB0gSCsiO1Omx1ESBxuBIjEQgMQACaGKCRYWITAWiiCRcSD0AAmhigkWFiEwFoogkXEg9AAJoYoJFhYhMB0gSCsk3YkHgEAiSOEWyFjSDgIQBNeCghzUgEoImRWhu2eghAEx5KSDMSAWhipNaGrR4C0ISHEtKMRIA0gaDsSK0OW10ESByuxEgEAgMQgCYGaGSY2EQAmmjChcQDEIAmBmhkmNhEAJpowoXEAxCAJgZoZJjYRIA0gaBsEzYkHoEAiWMEW2EjCHgIQBMeSkgzEgFoYqTWhq0eAtCEhxLSjEQAmhiptWGrhwA04aGENCMRIE0gKDtSq8NWFwEShysxEoHAAASgiQEaGSY2EYAmmnAh8QAEoIkBGhkmNhGAJppwIfEABKCJARoZJjYRIE0gKNuEDYlHIEDiGMFW2AgCHgLQhIcS0oxEAJoYqbVhq4cANOGhhDQjEYAmRmpt2OohAE14KCHNSARIEwjKjtTqsNVFgMThSoxEIDAAAWhigEaGiU0EoIkmXEg8AAFoYoBGholNBKCJJlxIPAABaGKARoaJTQRIEwjKNmFD4hEIkDhGsBU2goCHADThoYQ0IxGAJkZqbdjqIQBNeCghzUgEoImRWhu2eghAEx5KSDMSAdIEgrIjtTpsdREgcbgSIxEIDEAAmhigkWFiEwFoogkXEg9AAJoYoJFhYhMBaKIJFxIPQACaGKCRYWITAdIEgrJN2JB4BAIkjhFshY0g4CEATXgoIc1IBKCJkVobtnoIQBMeSkgzEgFoYqTWhq0eAtCEhxLSjESANPE7QdnXc3o+l79XtaVeKW09cTW3YoLXc3rc79P9fp8ezyMKe03bcn1Nr+djOqRKRSC/f5DE8fuWHG/BK+qywU9f2zz6eGsaSnixPqbhtF9NCk38asuh3kcRgCaOIivzfT3u0/3x3DgPknnh27EEPqmJ1zP4yYfnFq/n7Kv9Kb+mPdOmcC0QrlH66ijUqWHe1x9KIcfX9Az9RnebC0Uah6CJkTRhOME0TfxayU41xpFPauLrCYc+9Wv71a+n97MVJE38TFD29bhNodJ/f7epOu96PabbnPZvuj8PbiNW1q1asfa6RLtvd3+AldXp7/bAxUwjdhJH42lDJn/egybD333ySC1cOIX0t8OFeXBzvO0Q/VG48LnoXZBhNcH7Us/Y43K71/QMN/GOjh9gcudqja2JrqeJfYGfrRyL53H9YS5TRPUNBz+jidf0uNE85IQ5vwH6Ga9ROtfh9Zjus32Oax+jbuk6Ysv1AN2AlgHYOPf7yrkc84kP9xvQxKLNrm7ycU1IoXlumES9ePzxW4JyM+fbdLv1na9+RhOyzbZ8CzeIb7fA43ZQbIn1W10Fs8XaD53zJMaFmEKcF2pj4juoTdc/xc8P2agUS5pAUFaB07QrOsff1D8oywTqDHotdefn7Z8gxgndO9AdnKfHX39eTS1nJiZxmAlwIBKIEw2Xf0q//LuvVz+lu8lpZTytkG/75BcQr+lxXwZSGlDzz7DChg+4+fHVIBx1/x4U4vcQcN5y4RORfuXGmJp4Tve8r9s9UeIa0CYUefNnE4z3r0VmLdBKoLAa6D1RvLHgBPXR39rP5pb+2vdLaSKs8Jt9p37zt9ZPqn3npjsQrVr5NQ+6Xn0/pol4kzTMTT396gHs2Rygbx3YOFQI6Mwryo1f7MU5vHZ+/LWf8cu6aJe8SI5zv5YxkV0gL/O59wreefxK1xUtWeotyfoOzWb9pEP2QhPUrj11+WFNME8hHdTmWZSuulAqBKXCvFO5PkrFspXg71/qzqvCm7Yd1ylR+z3bbprjB8mW39mK/ejf/riKbjXrt7ROMAYsy9ez2hyM7yv/oiT8ynrv9bd1Pr8u1wlMcSyX441IXfBL3kZ0DWR+fnhs4DbROIGgLKeyZTs6xwFB2eicSt5scjMvdc+/P9Nq4XkVY36cf6/Y3eTkeRCj8L02iFWqddhhEsdhBZyaMa1ysDpJvr996V6caLiCssFwuvh/T9SygSflRxO5rZ+8Q2cDneGPwRdrfi6qGnVPk5Ww+pFW84c60/5TG/uwwq6lCQ8m6TNhQkMD+95+S/qZ4ifRt7b6fnaecFyyPbPPDJrJdMQg/5wnfCEgMNDPzK+kCb7Kr/arB+m/ma8V+lfyPO+nKCesTGm64Hz/dFmcU7sIlb5u61ymy7VA36EJb0v3Scf95VO/xOF1qAZfWswuXQu886G5k+a3sV7aRWgcb5SxKOQdj/M51TRReSF4JP7R6jqjLyB9FD/zPEUBni9Mo5rNniw6pQl2fupfbPcP/jqN1+EymqAGjTcz3+NgwdeiXgppBKs58GddkzH/3qyzpOdYt1x3UftG30AcGj8/qYnGqorkvH1yVCLh5i+sXbUC2DhQ7D8rPqGNEanK7IZHJZ/2OiSfS+VlW9HGQtqCX/I2qtavoMWsVod/JU0gKLsXdXSOv+nvpl0IOPYZF7Kxo1wFvDqLRhM/45Kc/DY/k6ptxSIP+j3n5zzRoyXKHQOrwMmbJI6Tiz2mOO6ftQ52Qwdl+2jJnMx/mf+l/HwX+3anW+jQWdXIt0u+SHVi1WQXKnKyEh7PQP4dArNXeZzBpTTB2l/fDAF25n9zw7PJUrjAMYOYeo75XvK7xX+lD803LmpaFcdZwOqR+lu6WZeXvXz32iPT2XpjvELd5sftWBcUeo1+be/VNCF8fjXnSK2TfPc23UTQM5/r3GJf2KyXODHP/Er4feux2pggfd2us0wHTSTf6KOJravA3v62aR5eC9gnG8tbzDdaHjlWznQ+mvSZjxfLyXRc89uoWW2OF+eIer5bgrJpDlTSaFrttdxwebzfBdLjMSq8HXq1raORlCTQBG+L+i8xFITmLvJ5axEEHe+uCVEjZt88Puk6orrogenWRR1ZHxkXDWhjchqHZYwi6SLWTVzk8Bsyuk0CQ8OXPppoKLBT0tiPfnClLM03wiMl2m5UJz/Q9JAQZdfnu+Zcef9fm4OFdVvLIw6LiwMKY1ZsI22sexvpSZN4nLNFmviOoGxshLwBz/me90NNTRCdY0ddNedh+a4F1Fk0FQDRgXus/iva1UT+sMQkjsMKODNjxps6c/NT88NKXeNgXriIV7Pg9Sr+TEc929yZfDXv/MMK3eWmAg8VUfpFY2FytU5DNgqZxPorkxU6toGnadiHD1xKE0WWWUBWtKHsd/cG3MmvFj1Kf6WfD1FgdflkFWdjpvBLlqS8KS8k1mMMnS3TmX2HMXELK9a43ijXK3xeTxNZWwvfTy1GfWZx0jwnT3qx/SvlG7eo/2Q+VQ7+Fi5OxOM8pMZieXFD2m/XWaaDJiLATj9L3ce3tT2W9LZvND+ug/w2PlImBR/5T0jFtueRR1EX+s1eGk80v42a1TTN8lXvNcbjkhGVp62UXYKyIQCXPX4nucrBW8yHNJsPLp1n32ecYPaQfx3+Kdub2zS8JjiM93bU2Nwua41GveT+2LDaVil22RXng1qb1cfhWLd8Mhm1r1znmJWpH+ijiXo5vVPwNs5R9SmL6VwrILbzlscnJD/Qsk71T+nCDYRVHw5vkdwAACAASURBVJ736Y7v0b/MOAErc2u/9tZVbKNcZ8nA9KvYQhqW/JRN0gSCsnvveMROq+9K2bITkwPv6yij85YVmhwYQdlTxNm1EOafVjNHX9vQQcVzzc62YE34mZtVqcJppUPRp7P6iBWs4aH17xdyUfr5Qia+PGDRMqUhG0VVI1dDg2GgKlX0x47RgPFj1W6sLpsQhYmBpofY7stNOO0C2F9oVl5LAHPX5CzUUJZt2+FNt7xdeH52cz6pCivG/FB+JuU1NUFzi/dNZtHpLU1D/eEhQdlMX4Hx/KdpseIp1LcveRj9tMjD6+vedNCEwOv+wvgWVgO1rxRSgvdxhZndR0k/2rH4gnxZ+3T693yzzphYkC61vjzaoJUTNWdoJB6XjKi8YlDW3eZWwvr7AERwmwXCY98RftnC9ru3PYFyq9psf6jH/n/QhMXwI5owKsOvM3IdRr0IDcpFADfjV7NGcWl3nA9KjS4J0pie14kyiHXLx/uofaNvoAwaP/toorHQDsljP7o3bmTWhek8b4twTmznDUHZ2Ja1c5O/qNdAZt3tA9G/suvydAYrUxsfPfveuoptJHSWSgpbnjTyjOO/kSa+IygbIFWi7emZZ7c5oFJMz56nGlYzFdN6XptYag/m6FaHVzpdPVbNkxx4X0cZHVMTP6tYTIegLKPyI5vMl6xmjh3m3Im1PeQ7vfU46DL9dHp+xEW8eKgMNB1RJl/VJifsJ0JvGJQ+aTf8LGh5fijtIz6CX+S6T4MdTT80KxowDi3ko5kzHw0TgMKAnn7O+Q7MtgRTVzYufXnzitI9k7O5DtJe8vVV9dzBW34m0xlNpi4YmL2sJt59m+6TzG9KGpndgeYpzsd9xD510dXc3zI/L2qSu9+U+5+3j2a2FR9R4k3HK5XXabnxd7WbFX00kfha/RKNybd5JQ/n3Lgd/UubLyx50Rwh/ER684pt4zEf8cWMuZYyLQSu5t/73MjkTo8BSPOxcLNsPn++IZ320wsjl5Wthk5iXSQjKu/woKxY7V7gUGK05VjeJo2uRcmhCeVmiKGH8HPsn9AENa72+bxP2ouUol5WfhVuPKSFIlqW1X3Ffqw+Dse6iYscPL4g557GglpgMz/T+E7P32Y3jXg/z28gzT4V23lD+bEfr52b/MU/5zLse++O/mUGZecg4BKrizYqv7SgOGGM8fF44FJYbKOVzlIdPWlS6nO2aJz4mqBszewI0RMYdDtfrVTHcVaWNYF05CKSRAfmTjWXQz+tJtEYkyiRm/0lMs074uyUmM7DPjt39fUAXqsydu4gcezM5jtOZ7ytZpb+Rr61f/Kb9JAuslYT+M6Ukq/KCwheTLizHuLF882aLAAb082df7h4SS+0kPyIU9LgnF8ITD+WSeg8oJYGoVjY929cShM57i0/H2O6midRnZ8fmFdx9T1OXGoTrNWZ7x1Mk90DUEsRYdXIzIYuiKWArIr9zP5rayLeUZPtwfw+9e8ySfpGfaQjKMvyDVy5q6Q+PYxJqb9N5aSt1/Mx3UUQp5w+nRm2oAnJo/1bH02kdtB8TPQr3FHaq8tWHhXmC+85Qn1leHsF5NyLnZ/pQfSj1J/S5/s6IeZF+5s/Da3EukhGsby8DYz0zLqGzezZmYVgHn++4uqZtlteFLh11WJmHTSRAal8jX7Fr3/DOdGvHNcmB2uittBLO87t2vKT8CK2ONeSGl3OqY/DsW6mlo2+oVgp+2AfTdj5H3WEz0VyVJvKbPDpeSyM7SznSHPZr/BSb7YIkVXoJa5xNB9hicPLuGnsyDXIkzVsR//yXA9HGwv1jNzWfhnbqFB3T5oG87okJU0gKLsXZ3QOx4WHpyyWHxe9dGoSzb4Xb8W757wgpY7RgUmonT61CbdS/Om7SBynF3xEgYY/8aKib82dGPmWY+JT8YPUvukiSw3KhpdjsTuF3m3NbZOv2h36/BOj+cI9vCBJrooNXMSF/e0xPd4vfZrLmwc++cK64C/2n10P3gbfvn0pTTDY/OdmwUZ9dSA7gW+GiY5oe7ppxhMdtB0nLsrkzFUk0+RBQdlQjaTHRSOaZl3V/cJEV9WEjZr7zHoyvD6P6aPQ8LkGtWc1i0CcptPXc4rzGdJkYVK+rmvYw+0rzee86YxSYpAPmjAITfQLnDSHeKdk/d6ulasUcIv52eN06sPsNLod9b1y7lVPX0oRnvPJA5P+7fcqWuuGR5xDSvtj3XNtG+lLde96LJbP52We/qprLWJmfcaJ1OdAExFtdeMQTcQ+g/vX8du5zITxsU5So0uaNA6vfOedSV3LffXTRxOCwClf0liwdd6dVzMEUvkvF9hN5fArEH4s3CeP7ayUr/Z7il8WHSnUL/nLqStlCU20UfPld6Jo69ovYxsV5n+eNFSdsz5JEz8UlKXAzX1SH0bPybEl4VX/4+fxbQq+cFFo24/0tvWb8rMhISpxvrYSJQ28QgzRAelCgYmGLkD2fFYgRQfeU4ZyrjVA8Gb4xDaJ4xNldy+T+Y7VzHFALnRiVr3iucU7YMyvtUrETlgZQBS/Ce0T/rSskq/mHfqy4kKsoAg/5YtB2RBoTW+nDPmHZ9aFO9pk4/3p0d3yUo9wQbQ8zkHTuUXze/dfShMz5uVZdeRLc3tXBxatfZhvk6+yZxZrZ5T2Pe+Ol8KEGxhU1vzpO0fqRdbb7ou96Syr5PnqTRnr1C/ffz1NlICnfnDWjHQm48Ss7cPPv9nNt+UnnjxNeDmKkVXYzcayRbfLTRDqw5d9YWxYv2SlkCs7xOtCcy12OG5608UTsg15PjSR4ZlvjL4vVPnwGW7ein6vbb6Q/IM9nibO8+1nwNtzinW9W/fQ3ELM91sz2Zt+vqERArrhpS5KZlF38vEN6Wfm4eb2EhCeh1CWfvVIK3ENxIMRbHvXI+UybXF/KXYuit2ddgW/6/GPXv4p2gia6IF2nUdJE02LSPQ+io+D3u3ovlFfet6in+P+r24v10mxH4qFvJHEstbBrzU0/55emvCX2CdlGgvC9SdblUo/q699VqvB+q+8LcK57Fp5fbh+fepbdMLy2RAT0EyM/lWME7zPjDY6H1+QjVmpjdK4RONT/KRfU3WyT7O5dR9p4meCsq0G7k4fHaNHx6fkoThDcqZwQZAmKbRqIP18Kolm1zOuyDHX6hb4Ur32rcyVz68qXfSI4k//QuI4veAjCoyDqh7EDEXGDlPxyVqV4rnFztY70CjPpV1N4h/xwkxz2+SrLCjLGIS2nW+evDtySh+CUmQLP875hEF41iIFFt6TnBBc2HUdUYP8BcevpIl8Zd72IA41THoOceAU//Lg7Cv16fJmXQoIkA/GPHh+O7elXpgmD1wpOxMSYynTJeH70c+f18T8okV9dZ24PyF++hb8u6ENRdszbQifC77ovehTns3KdOG76LAcDpqwyHj3H6UJtc9mc2TZn2r9LFuBFPxFdoZF82iO0OT3xRzTwdjfW3OvEDTOLjrD2bQCkF5GmnI8YCubP5XGphlrQ3o1r4a2ya2NbRVeEEfXN2x7R9Z5Ue7v0IQb1ZzwJzThMomPVeGG5Hv8C1oPwTtXHkqivfpi4yX1aZF5LpBYlnd8Vuqr7DpKE0pRXXfF/kUwlPMatU+j9DnfVe3YHERLy+ZT2uFwIao9OiPs8/9L8aVeNwujf3nmjszGIsuZ6dovm9rIGnf9sLqlJE0gKGshbXKMBlGSODVnqJSZREiiWTukZY62f/6ZdrjDLa7A1inDBHC5m+dYpbw+Xe7hq5gr5coTz/tG4jivxANLioPqLwRlPRf75Pu6PalDlnnNKxCVlSCkgeXiZvkpSd4aNKAk/YUUafCU+/Ozr/H9EppYBZeWl+2ElXbe1QqldPdHduFPfX1YuRcC99nPltOEI/kqXWzHO7rWM/TiW8OXFd3V9GHltpiXJf8N9Thupex6heNV9PLzmijMN2IbKY/okH7k6N/CqiPlp9Xt+Si/dogaozlYWM0Xfva35aIXmnC0ZjHJEZoQ/Sb/lYD75YGyXVsvNFP5qZ8uQmg4SHMLrU7xWBRjyjg/Zl2Ib96fimIr1Os3zedrfzbn/OPtFcYZuqGtfMbxULGXV8fcZuXGG+ihfwjXWrGv69+GZn3eB6CJGiF5PPq2co0cjyk+kh/b7PtWYEtWs/gtXFfEVf3v9w3E+nFN5Dfui7naB2MfpTDjP0e35nmxbjnXqKl9sYa85kdoIi/jiO+R82reQfOPymfOd1VJNlZpaWM/pl//rrLbtCNdY2vj0pYso3+1BmWVcWIZQ4jz2i9jG83a0m7QskddqXrZYuH+c0gTXxSUZc641eG953ka4hDnZzaqdXhO93BXl34KxF9aIdKTaNYOud81kAOJ4xIk4qBqd+KxwxQ+9n626v1RvKMbzy12tszviwONZ8JMvq/bEzvkYn1odTD/mStbKbuKFix3H6U/JJvUiU5YFdl0d1Lm/m3ffl0TyS9oME/Pj9WOBXtb/xbX1gJHSz9tl+Px+8wjdo9PyX+DnaoPz0V602X1E1+TZstliZO+/kuw5af/rVbK0rMls771PYaEYKeI659gfPjJ7nzTRNXjEoBdP76AazfccAk3npfnsy0X6lbFvb7uTWeVE/ZDEyU6y7HsETM0P2FzGs+L32JwJPRz9+Uln/WyU4rUb2/op1M26lacP5FtLFUsd3Us+d/cb7OxoHXMstKL8SDydtqfp4/1K52f2cQ4+DbT+csqaPZ95se+a3NQXyGbUvUdJ6CJ2Wc/rQnLE/Jnm7N6Jq2Ha/w01i4aDGPZc+Mv7mq+ncYaoWtmQ6xbro2o5b6xhr6aYIYcvBn75HnOrAf8ir/aqF4TVtoy9qVhjmaviq3fkCiBSv7y2aBsYbwo+GVsI6a93FpPmvyco7+TJhCUtUgL57cSte5ngis4TMw11iHvEEk0+f545vYN8ye2Gzqg1U/PHXmcfdWnkCJxKId+b1fsvMKFqr4icJkUsOeszYvb0qQhH6c5hDiYF4OgzO+1zKKfFzrhWCj5fhY4eB+PnW2pPrG8TD+MlVbNWIX3BtmuTXToWK9BLS/77O+/rwnmg+EOKutnaLU03Qzb+snzDLPrsDo7cNP8I7Sfy1etho4+rOvAOi3tZzwKdeQrwku2pHy1LW9Z2rnfu+/3NZGxLfV/1uqhpv1ZednXcCHxfIYXK7KfeirBWHrWd3b6+wWNadwK7VP7k/2810+96fIa8u898uD5fcd2N03Mv6hi7ZcHU5mvzo+foRd3EYY8OPL+tQIdbvnc1U9XCirOE6KN+bwomwM5nnHJdVBarUrHxK/nzHoYxuXp4/dsvsVPj2m2jWepjagMpi+61tpZBq9uyzY00UKLFkzI65GYQ2zDD2siVui94ehvNK3Pc096rAGNV62rZyMTSzupv7Dmork58XvMm3QVj+za6KaJXbVoPzn1Mxbr9jzlGazfYpOT1xyXeYlnyvI+vXmb+kRZ+Ptb8pdw/RoWF9WDvOU00fdL1+VUl3htk2ucEvBf3639MrZRwUZPGlbaKZukiS8KygbQlYZlP/9sv0vwjG90dT1PKjpGT/ExwRUcZvEAlpaJczlGogkOydJRp978mRw7OmtzHmwCvePc5kHjALmQOA7I+vws46DqaB/uk/w8vj+zwNfZMh9d+TJ/eHmhE47lku/rukz+a+XF6pK/3fK9Kiu0//IT2PVNBBbLi8+gXfUnjN03+HNEt2PjEpoIF/r5xfsOJq5Tw5hmJKz7qnFi2L17fGI6QFC2ANo+dAlNcPNYv5V308lXHeOIOf6v++T5sTJmeirrvSJWe7gmrz/bni9iwiMT2GM+QnuJv9xI9kiakM7uu73aYRVabfbIY5Xpx3d00wTzRbMdVo+jMV789v758FY4aY5T//l+cZWUskghvi9CnWMZc53IJs3by7YxX1v5fPnM+Wgsb61f9exVesMOfnIcz5xlqOdyzTKbGdvUj3nZ8YK2bUMT63l0SSc/oYm3K1hBVW2oiv0I88foUaugbhirlv7Mmj8u5zI/NwNeSX9mXxorkm1ELffVSzdNZNU9+mvqP/Trz/3ls/YMwXm2onpuu9hPZnOZfG5T+675YKx88pfQTn3/HP17tLGQtuCXsY0KNnrSRBwnbZAmvisoWzE+gjTevF4+nTm7Z2ISHaOn+FgdCg4T7Ei2Ko4pHJLluVlAqcNNz49VVlXy/M1nfSjnNaQVd+jLDXrYURLHYQWcmXH0lTBh1SdH1iQoTiIKektpFD+NdjIf1bTHtNYyAGhZFXUjdLVlsEk6CabFsrKK+JhEOD+xcSlNfAnx6D/mZLpQUaaZzP0KJ/FDTJMIQHEw7u3LaYKNFblPJV/d0m/SOcoYwcpMfX8Iwt6n8Ob26q/93K31mua3l4fnPt/DM/KVuiAo66ZpJeyqifkRQFZJtN94yeI8V+WPJ6L07Z9pPCc/PuBTvR5IfbQIpsS+X/Nhzb50kS3y0ZJq+6JGneWt0ht2sLIiY5UDS5hvxrLyl7elMuWvldj+LeNuXr7jOzSxUS+qL6T2E758oiZCIJYHy+K4VVnhGt8XUFwYoD3+Sr6cmLtc1E1xDrdV/+nXXrXHxPA6eba7asJTYKc0fB6Uz5H2F6G3PflXHpSl8qMP0A6zIskPVguJxDksHY/5dNl2jCFRy8s8UP/lIv0iSl6TBzMiD7X/WAyN7VhII5Cc8IU0MVBQljla1Xl7rETSWjENKHKikKdNdRUDDyWLE5Hg4JQnd05tH+XJRUH7+LlUyPozOvtJk5l1Dc7ZQ+I4p7SDS4m+Yt9ciO2ad1DsXMtf47lFnyB/zCfOb9tjJ9w2edNkHDtbrT7MHj1A/Xg/nN9eEcPvWseyODdmi6rdg5v7qOwvpYmjIDXmG/1H89VaXszPNB3UTvc/loBptzjxL5VI48yi7231LeX/mWOX0wTrH602iv097/OK+FnbG+fMF6vhhuG8qjw8V3/fjV36Cfb6k899tEp7fd2bTiuD9jEuhZuelPpXPs/SRFgJHV4eF99oXrhgnAP8IRCyMcIffT6U0dk3A6/5z9BGLJsLkvp+45yVr0Rd++b5xfOV1b7hpXriXywv6S2OdWqdk56a5kziJYSprKUuKc/V3DXWz/iJvDBm/xdooq0//25NML+K2nXe/Im/BPb5VHg5nejfMu3Q47FK/cdSUhprbH2lNJE/2Td/5vry2WClOksTVvlb98d+rNeYPa+QvqeXwgnmYWx4r5amLpb6flZ+rFPmHysblXNXaeYdzBc++vgCTzxgPabFMbPAw81MB3TIXtLEkEFZu2NirN0OzM6pbrIOveAwVaeKk4rQUVKe3Dm1fSQ03rnSPn6uYUQsk/9EyEj747tJHD9uxlJ91m58Xs9tK/lbPMYGAfXcYmCJ/LEWlL07nl9DPqsHmWNnu6pPOi+0r86C0nCNcGuz7dhHUHpmZ0HfWS4/8fUqmtj7bKQt51sNbPvqckY67pmc6GnssY75ajHY6k1nWTkvKWeTTsdYU8jqmw5dRRORqWOsaH1sBvdhvc+Npb83qA/W/Tkw3/5H/XReJn33+ro3HeWrfDLWvVchKaWdtqu/JsIjzcIvfGiFs9X+yyMu5sA+f0Gu4S9LwD69VDesxnnMNwbWqOIc6IAxvZZ31A8rO+5jgio+Fz0+wqO08ohYKC/zE76q8Gd1m+nF9ExvcZ/S/8d5lHJs3RzvPbyf0M5jGs3rF3KIZR4fmIUmzEZUD3y/JsKNQ3v1qmpUvE43roH0k+a99IgEJvfwMz02p2I6U/NJWvHOB+UYG4LOasabd/bXxOaqNJ0Y+17zGrIpu/RrS22c0qCzfisejr6g9YOpPlFXq2vjlGbZSv6yuqGVJ3V+95fN++bSeOVYKTu/OE9/JOqTHoWqjQ1Om3onI00gKGuRZc4fJs3rVRfb9sXOznAGLvp5NV94Ltp9eVvjXIegxFi30BnT5IMLUttHQuMdOO3j5+pAUr3qafUcfmcvieN3alyoaeywrUBkZbk/O1/roH2dLfmjMSER/lywZT5EPqvbk/yU+zkr/z346c+kpryt4HBWt8hm0URiodctO/unvl5CE9HPlAtLbVLUaV+cPGUtrvtqSpSOb6+vdxK+P12qd74l7eC6zFP+1vdLaIIjj/1Zqf9ifakxh0lZUn/aEvhI5+h9dJpkx/62MPmeb6JE3dd8j9l28I0KaCJ5Cd+aV03Pq1E9fd5tut+XF5HwPNJ2eGTF+8Vxrr5c8w/mE1V/TyV7t6o/aVZ8l/ye99nSnzzsrDQKg1iH7CKZXlCUc4npeV5J17zegRPZo80vdY5LUIyupfL8lnPq7RbLDb6R26AXvGnv3nECmsiwK/5Fbcl94VBNZFWqf7X9v36ukWJeScs1ZqSLu5efx8/xBPFW2iXBcvNr/Yg7WqQZs+mwsVcTHaqwKQvuU9a8vilj8uUbrYhl/ZZWAKUXQeHKOaFCbG7HNaLXNflqr36R9PlXDQjzoGzBt6M963hUKssa49j+A/t9na29lzQxTlA2NqJzpSdzfhr8u36qzsDEZU0iwwWIiPLTOdw5tX0kNO7otI+fqzkN5bc4c68Atf5cN638c/eROM4t9aDSmN9rfXwoNXZiqk+y42IgWOobzy12tsx/tEpErXHftHiQz+qBg6gNVh9ex/uddciWxqz9Kz6sLvd7XMFVH/Qs2753/yU0Ef1shw9YvlHYr7l8aGnNV7kHpOP24zT0F2Y84ioK2xeZJg8NQCWNBB+y68Mt/43tS2iCo3aMFXNypiPLt0O61O/qfTUvOm0nfynlLfKvJ3z3zbXxBZpI7bBta7cmmA+GvMRfuHANQdin/fLEcq3fq27jc4VvsZ8M5eh9E/OJmp+VC992NPKgOXqqD69OHCvEy0tpHJDjB71DQLzMlK4p2LwpVjjqXeqHlykCNy3po33ePsITkA01T5zswAJLE3xt5wvhIq9sA5rIgOz9Gn3mM5oorkqfF1DRQir+SSv7/ubnmevPyeTp19uP/DEhzRyZv/POozmf/Sfs1sT+KmzKIfZ5yrXwpgynfCyrtFHsW7P+Mu4nTcjapLmY7MNlKvqW5mB230lpfZ9N5UdbCnVd9QFUD8Yvnz9o31fX9JTP+Z+kiSGDsq7+KDrG9k5U63hv5BiGMyzO+16F++7g559VhWc5vd/kHTuG2RBywjDxolUkz2mZeMl997lsvgqQxKcLObkllZFNksmWzZ8F0aXCT98icZxe8BEFxs4r68RZWbHDNHwyrMyeJ/Bi5r1kEM/VJvOxDOY/mvii1jz+QD6r2xO1wesz57/4ONU33BBY65Mu0rIVITTRWj2gn9lFGrAYRha/uXEVTfgeP0D959LfhYt133l6OqvFVV9liWvHWdJsM2lEDzSE5NJ396fLqvD+SnoL/nOln2kH866iidhyjrFiSct9R587JN81fh0RC803ku9qQwVPHX2rnvCrgrKx3tAEb864HX5auKzmCqu2Qp8aD31gI/lj+eUoR1Utlb+4OX2Xuot6E1qgtHJeRf4n+vzSHMw4FsvM5jzWfr5ai6pJdXGtoArPkKXVuUE7lImKnvVRWf1kcpbuID32GCegCd5q5Nd0DUDfz9FE9O/ZX3pfE9v5Cb1yHO5t5utF7bgz3JywhyY2F77jRN72xyCstFHsi8n3yRjSgNIvsnN8PsTyKvadVHb9s6mfj/WV45YoJc5Vpeb5dU3J1tiOnewTddv4hTQxTlA2NnTuzAbB+acBS3C0n/he81sbl8cQKM9uMqoidyfRLk6XvodG3faXO7YsMTj6Mz5GQQtmte2rBabz0s/+TuI4u9xDyoudl+33scPc0EHFc3kQdGUI81FNTFGb/IaBHuAKP7FZbi7o9sTOVtQnXdhRfbVqTBPlXRgMMtsov0V3/vOybL7+66U0UaGdfEiZ4FTObTmcytH9pnbcLov82Fr9Fc5kmjRXibWkW9cm1X8Zl0qTpPXZ37/ncppwjBWxVVjaVUAl9udbfhacfFfvo2MN0krcesKvCcpCE6n9/FvJJ5Zxdus8l5+n97mrOjE//0z/lfrpufxYH1n/6FdCC8RNpqU5i7AnalamDTxi3tn80NpP+WtB03gszM9imfpcTrQFm/fNPpDVRaSdvyRu9dVeLO07MHtXft69LsO355hxgtqW+/Te7XXbqxZGHyzNL9QzO+1M7fUJTWxZKRuveekafV7133bdrK6UZRrq1zeu/Uj0FR1a8RhNdKhYJYvY53VbKZsXmHxb6z/ToyuVPpP5QhoGeD/h1He8Dt4yf8vtWb6Lfl9LwuJtQivmizWZj1Ka2ehkb8lnYztWxxGtssfsI00ME5SNjfBXC0B2AP5e0WrmVDtunhgOJKdbhMdETM4ZH+wfREXPvlWcON51PoFJtInVN/Uc8eg3bJA4vqEuu+vAJlAW7thhbuig4rkiCJrXutLmbDBpmVho9iSd6wMQ1Vc7N2lLPze3iq/80FYBvubV7auzfnLHpTRRagHuiyU9BF2FnzuW8qocq/lq7bidfRoj7IkJ02T3oOxrEm8GDhciuuBsE37gyOU0oY4V4YbsTW2/5J9s8h4m13ThuWmulXy3ZSzwpa3pFZrYK7tjNHGET9R8YSGRfPzMObJshXAjOi4WpvEpG5tiPUU/S9ykrTQHEmMD5avM42LeVplif9KQyJ9MYn1M1Kw4nxKyz/wcSv9aXv62/sXTEuzi/ZCVZnkmcSgr1dtdL1bF0iY0UaKz7dinNdFU66it8Kvb9BgDIdWmDFlilnf02zj+smv+nftULbNqtG4eo4nWWrSnj33hNwZlRR8WxivZp/n9jcYNNq9rRyXOoDFndQOfUvXw42AgGytK9sZ2pLGE6vHBT9LEGEFZcZdVTlCsNgiNNl90x9nQkjJcoMyDvdqYzJlVj0gXq5s7uXjRQ5NEEh59D/XU9lHduP20j59rEem1n8r83gt1EkcvxPAtngAAIABJREFUiz+aj+ik9NWnscNUfbpc+3iuMplPZ5I/Gm2+sUPWJBY7W6M+qb4bJiyMzyvqkPJZayjWhZ2XmPzW1qU0YaFnWjEnD+HcPF02RljZ5/ujf2S+SsF863iez/p76mPtcYZpslNQNlwoPe70CBDSRb+J3drOz+65nCaYX899K/+5sNbZzs+NTReZ4QZwYLL8rftDX2sl3015UZ57P/ncR6sNNKFRadl3jCaST9j9mbOWca5R84UlvzRf8KV31mJzMhoTwkuAwyN1no/H8tgyeias0Clxk3UnmwTLAhdKn99Yo7rIlahUprKS6211PG/uKyr9BOuT5v6Az6Vinff0C7x8qX9p1+Ymm/vD7WdbZybOoh2t5KX9kaP0E+uU6A/ZvMVKf/R+8qczNeG3KbXTMqfkPsZ9z59jntL/aC32WK7ayzHDwjH+lxe68/sx48TOSjlOJ18L9RddreNcXxLmH1oBUatG+Xl/+Z6PtfURzGd5f+szQE1V7TPCWBYWMe35C885inzK2ort2Mk+1ejGnaSJywRl50afV4VmPwkQFwpGUCiHxx07a7TYmMYqkLLzMcEZ5y9VWTrE4KCP8DzL2a5s4hHrRXlyJ9T2kdD4wEv7+Lk5jM7fGdu2jqJzPQrZkTgKSX7nEOMd7Cr+RZ/ym1f2d8qH/NHQX+xIPY8vSJMFyp1/Jn1yP08pUn1pBTn/ZHziCnN2/B4eOZJurCwsUxAq9+dY1gauqcbfsXUpTahIqS8MPlDvD5Of+dJrRaY8yFffqxLfE771cS0XbV+yJffJlJppsiEoG9jkL3os9SnzhVIq9FJbl9MEGyvCDem00mzpt617D7Gfi+NLXT+2IyTf1a5J+Hmx3HrC97hHOuO58G1ogtPYsn2MJpJP2P2Zs7Z8rlE9JZWbBySrp3ZOMAdgnw/5TFV2wR3HCqEFqr/0e9KNYGlySZoQ6a3HGsR8rD4g5beMG7fpXnmBEbdN9EH8J6/KfI2PS/mYlb7fp/xJBXN5Heds0ERnMbyz+5wmvPZIX0/SJF0uc8e035vv1nSsPucVqlb2GE2oRXXdGfuibw3KBmtjH/y+nm1ua+afnfpBGnOKi12ylgqsb6vyFx++hZsKWfrwNbbP6jyZ2JtOnnXsN9LEZYKyEXK8MHg7JP/u+rkp67g04bELF3WixgSRT2LmJmXH8zuxLhvYRGxxEaovnwRp+0hofIJG+/i5xzoe7zCa+4qDq0bZkzjo+09/cn/lWtC2Kx2ZxsHX2ZI/OoKyWiEN+5KGuJ+nDKi+uu+RHvRzQy50fvAReltv2ifPi/v1wlKlfmDrUppY8Wb+6QjI0unJ17YFZtP54WaEfIlJcBlxnAp1fZIfl575xm32p5v9Xus7sn3ar0xcVf+hRJfTBJ+bxPYsBU2WG1QiePs+z3oxZL15k+/Wuk13/xrtkv3zui7QxJpJ255jNJF8Qp1Tt1TR7Qvy4nZ3uS11DBeXcwA23fA1+93wbMrwMrTDVsom9rkeY5ls3hg1yfZF07MxjttU4xsCcG3/mJa1urRltis1NLELXzz5ezQRq2RvhF8NxccDKtc92XXZOTevmSZyMduWHHLkGE0cUlWRaezztNiQSLn1S6WN4vjVulJWD2LqtUx9fh6j0tPX98Zxwbu6ntnJ68D50/V3Kp3Vu+LfMZ8Pjw2p7unFwZcJyoZg3413gvGiIgRPbtN99eZ0joNtc2dQG5aJRnWw2nEZ2BFF8LLn+i9vgX88ntMz/JQgHudBVCqvto8cll+Y0D5+LmPRfZPqui2I0b06Roa/OmCo5rDBf56885+kvLdjh7mhg4rnqlqgGrF2Fw5Px6f3T2XS961bsbM16kP11atBeuAayWuypAlBh3iZwBinGzXJ5toFR17CN36/lCYE4NROwUbdL8QJ4kvyt/Y+TZ6bbiLSXeB0vG0FOX8Znu170m5vusBI/Qsrle73KYxVUReC1PW+XEsT0h/mNr49Jn0R2/LizzwYG9p/vc/Kw/IH6oPrWqS+PPW5Rp5x3lTq18O5kgE0YfAs7D5GE8kn7DYpVIof2uQLNb/hBXTajvWU/W242RWuZcL1AP8XxwoxgBE3WX/SjWAZy5Np0yKKbL+2KonNg0Tec5BZ9g3zcZZ+6W/COMet2rPNtLxhXrun5PxcaCInsvF79NEPa6JS/dWjzYxVffIxWMsiD/VlXpXy/IeZJkQ/4c+hV8pjNNFeO/GIBuXaOD8+P1//PQe2rqfzc6zvem0rbcQ0IJsw/cpu7kvDr9/y+VhYlOjqX2ncCDq7TfbzuLNfpYdfdRt/KTa3HkdWHMSjAdd1jmPdO0YWf+lgslmVkG5ifnhs4DUjTVwnKMut27wtnTE2dpYfdwopjCVh7bjsjLmTPueL2jkAm5UpLhiEI5GIeWBV20e2yfKWN9nzc1cFV3akn5MX9f5+3iB1GNULqUqpRx4mcRxZxml5s4mv5quhHjRJ53ekXPVjeZfPJX9U7hi7CvInirZUgrLaz7DTwLHcyEk/cWM/2TYgpnLDqsPwvLdHDFAYp/iN+oKUl9LEm2dYecGDSPPqvkc2sch/FmkFJeN+b1/KNMHPZbMmPo7EfjOmlRcm1vH84vgLXOkyVbiWJmh+sPiV5jf0zOCVr4nJfv54l7ef3u7Lsy+rrZ/qUbvoiX1u7fl4cbLO5z7ViiDBBgLHaCL5BD030rrQre73+kJMd/ycRcUcXmI1v6H9MT3DStji5Jr9qkJMNoib9HvSjdB4tFdPq83v4vj0vh6hfMVPVFerY7OV96vjIZjQ48YeG1/F9ZJK+9Cd0EQnvF+iCd2aZdEUn0+Gdq/7MvPTOLd7LyKzNL/5+Zvs8SfhhuvG53fW+iKdj9x7jCZkGdVv7Bot1OfcP+s6gfmD6Mvf1sR+mt20XvWhrI9dHQsvm1sWedh8aNw4gokcX1Z1EG1iMVp+xRK1NvfvrM6O/j6OVY60qzoetIM0gaBsBMzEUHzG3nyLOF3Ma8LhjqUd54GwWlnv+sUJ0Go1F9WbO7C2j5yWiSIGJfi5EYhzg/JtEfCe8pzV2pGMxLEji+85lfmi4Yrzm9LnACRf/RktkO2bApVZe1uZz/mQP/a4wAmTH/ZA8Hh3c3nJUBxYjc42dsZbB2HTTskp1qPh5/AR+RduXEoTfJXPVj8onlfv39KvHt46UvyV9/nJnzLdFetReizBFzrZj1XpappYbhZL36VAbJwAc397B1rVZlMuBpIPh1XVj/ntwOtzrX60ze9TWfw8NvdZF4w9HQgco4kjfKLkC7w8qYcOiA7JIo4VYn5CdkhbaQ4UV92Gd1fEXxnytHS+Po7EMsPYxYIF84KLfBFG6DfEzRuOgc0PWf8iTOHJXdssT2VsdWXRKRE00QlkYzbRP4UjkU9zP08LU+qaSJUIY+Mz3MSP2mFjTWlsTFnErdXq2qiD9y+QwjVPuNYJZ3CtxXSs7IP3CZzRgraNYzTRVge5OO48fsvchMaV8NiysOhnWQzCFwaJm2ZkGmv78IuJ8GLdJb93/dU+1rpRfptvlFPW6ZM0EvI8caWsWCFLfFKtVlshtvHu26PWV/GxaQqrm+UKXsashzOvKrZtB2kCQVnixx2iOojXBvz38VLHzIJl2l1oqtbyyUSyciKqC3fi5eeF9zv/6eA7mJWLeO7A5QAly659o/KdnVpgYt0BrBV10nESx0nFHV4MrR7ZVpCnfWv+w/JY+W9rrVhehcmHOqCxmyG7q6FVm2ua6nZIQVrhx+67miamifWp1Fbxk6+MTitn58fI0A2BeDPgPVGefYsN9tVgfPJjy1fTRKOmr7ztk21W3vkZ+N5O4Hqa4AySfwY7+V99pUXKZ36UhnbRavySQeqS6TBfsd7yPda/VUfJDmz5CByjidSf6b9wafAThy+kfrfHTWQft72pYp3z+cY8TsncX+9fgzwe8pcis8bZtU8KtPJri5RXLDOsuqNn2pKuWfAg5FtfMRhW+7JHHOR2pGKdW6z/YjY5T+6aDJroitOdWfTP3Jd2aCIE8pZfl8oxcdZO6FtK1/zVmr9X26rj5RIgm6+d50c1NvR5LWOlI22Os2qWkuAYTSgFFXe9Nq8W3rrKmJ+3hEFYPxXHJtbWef1ZvxoCjdHvQvC09uiw/Ea52S+y8dZMk1es/J1uBIpfUbBT0lhTsJ2lF5uMiRZLi/2A4LuhHFFo/y+kCQRlOdvZafUJCE8WtsPFxt7Y4vPuEBIVPN8V0C4qSNS+eq/vDoWl7lTItk+a5Mm7ESmYsexffoa1rYRzzyJxnFvq95Ym25dNBsLzY2oDwWwW+Wifi5zUwYeONf8LmrKVSefu9Xm7td43RFqeY21n9jVHLqmJZ/DfcOMqBVb3Aif/Cheh1X9hpYXtqum5R3ShW82QEqRJFYKyxKT/5yU1wTGJm0wNcxWeB22Hn1yyoIstj+S7dhrK1PkZJ+3a/MmZB5K5CByjieQTu/szly/QfOV3/CVeeDaJJtjJ5nPKM6TnFXxGnnMQNZz//oVVuJ7h7TOPha2LMMI1mPqLLZf7sUTUhiFQxp7/z1KctQlNnEValnOYJuINCLr2eI+NhbmcrJnjW1hpzsbL4ENcW44cvjrJMZr4apPNytE1Q2AS3n8UbnqbzxaO49fy+IJw7vzYtQbfW16YV1ocl8bbXn1nstEaU8Nq3qCn9TNkTXDxAL0k2YiBaTcxxILFmNFHN0gTPxWUDc9V3bfq76PMjyv8vWrruALGypnEMZbVB1v79tGGsaNQodQPUH8wfxbOSIeWc9N3bHkIQBMeSiFNuPvex8unELSdV+a2Bo3ZIz46VcVr/UjphtBEuPl8tg8dMJ9ZxomRvPMzth6miY7zB58vhL73Mwy3lfqeE207+ZJnpcdcnd2BSZzQhORx3rejNBECpu9nPZ9izFF2nFJ5tZDDNKGWdqGd7HnCp8/LDsfYep3DK/QqLnDhKb91mzTxY0HZb8WJel2JAInjSjbBFhDYQwCa2EMP516RADRxxVaFTXsIQBN76OHcKxKAJq7YqrBpDwFoYg89nHtFAqQJBGWv2LqwaRcBEseuTHAyCFyIADRxocaEKV0IQBNdMCKTCxGAJi7UmDClCwFoogtGZHIhAtDEhRoTpnQhQJpAULYLTmRyJQIkjivZBFtAYA8BaGIPPZx7RQLQxBVbFTbtIQBN7KGHc69IAJq4YqvCpj0EoIk99HDuFQmQJhCUvWLrwqZdBEgcuzLBySBwIQLQxIUaE6Z0IQBNdMGITC5EAJq4UGPClC4EoIkuGJHJhQhAExdqTJjShQBpAkHZLjiRyZUIkDiuZBNsAYE9BKCJPfRw7hUJQBNXbFXYtIcANLGHHs69IgFo4oqtCpv2EIAm9tDDuVckQJpAUPaKrQubdhEgcezKBCeDwIUIQBMXakyY0oUANNEFIzK5EAFo4kKNCVO6EIAmumBEJhciAE1cqDFhShcCpAkEZbvgRCZXIkDiuJJNsAUE9hCAJvbQw7lXJABNXLFVYdMeAtDEHno494oEoIkrtips2kMAmthDD+dekQBpAkHZK7YubNpFgMSxKxOcDAIXIgBNXKgxYUoXAtBEF4zI5EIEoIkLNSZM6UIAmuiCEZlciAA0caHGhCldCJAmEJTtghOZXIkAieNKNsEWENhDAJrYQw/nXpEANHHFVoVNewhAE3vo4dwrEoAmrtiqsGkPAWhiDz2ce0UCpAkEZa/YurBpFwESx65McDIIXIgANHGhxoQpXQhAE10wIpMLEYAmLtSYMKULAWiiC0ZkciEC0MSFGhOmdCFAmkBQtgtOZHIlAiSOK9kEW0BgDwFoYg89nHtFAtDEFVsVNu0hAE3soYdzr0gAmrhiq8KmPQSgiT30cO4VCZAmEJS9YuvCpl0ESBy7MsHJIHAhAtDEhRoTpnQhAE10wYhMLkQAmrhQY8KULgSgiS4YkcmFCEATF2pMmNKFAGkCQdkuOJHJlQiQOK5kE2wBgT0EoIk99HDuFQlAE1dsVdi0hwA0sYcezr0iAWjiiq0Km/YQgCb20MO5VyRAmkBQ9oqtC5t2ESBx7MoEJ4PAhQhAExdqTJjShQA00QUjMrkQAWjiQo0JU7oQgCa6YEQmFyIATVyoMWFKFwKkCQRlu+BEJlciQOK4kk2wBQT2EIAm9tDDuVckAE1csVVh0x4C0MQeejj3igSgiSu2KmzaQwCa2EMP516RAGkCQdmTW/f1fE7P99/rdXLhX1DcL9hP4vgCXKgCCHwFAWjiK5oBlXASOGOc+XZNnMHA2RxIdiKBT7Y7NHFiQ6MoNwFowo1qY8JXvK59Pl/TgJe2G7mNedq3jxNjtsr3WP3J/vpTFEgTCMqe2gKv6XH7mwL88Hd/nlp4Y2HP6U51vT06DbK/YT+JoxHYlyQ/ot2+xDRU42MEflsTH8NWKRhanaYjGJwzzny3Js5hUHHwxsNH+EJjFU5NfoS9n213aKK3Ax3hI73r2DO/I+yFJnq2kJrX6zHd3te1f3/36asvbVUDsPNMAt89TpxJAmWtCXy2v17X55w9pAkEZc/h/S7ld5zt9bjF4HFwltujx73P37CfxHGqa3Qq7Jh261Q5ZPOzBH5ZE98KHVqdpmMYnDPOfLcmzmHQU1vH+ELPGvbN6xh7P9vu0MQv+EjfOvbMDZroSfPEvBCUPRH27xf13ePE7/P9bQs+O4f5FDvSBIKyp7bA7zhbPjnqs6r3N+wncZzqGp0KO6bdOlUO2fwsgV/WxLdCh1bXQdlfGme+WxO/MdZybY6mh2Ps/Wy7QxPco/dvH+Mj++t1VA7H2AtNHNVeMV8EZSMKbNQJfPc4Ua8/UhxJ4LP99ZGWlfImTSAoW6LU/dgvOdtret5v0+12m26PXj9G+Q37SRzdm39Hhq/nY3rcw+rl2k+Djmi3HRXHqZcg8I2a+H2w0Oo0HcHgnHHmuzVxDoO+GjzCF/rWsG9uR9j72XaHJvp6yDH9Y+869swPmuhJ87S8GoKy/muZ/bU/s6z9tR0nh+8eJ8Zph+/Ux/lzmG/gQJpAUPZU/Z3vbKeaVy3sN+wncVTNOStBw4TnrCqhnLEIfJ0mxsIPa5sInDPOfLcmzmHQ1CxIfAKBz7Y7NHFCE6OIRgLQRCOw9uTeaxRvuvYarM84s6x16dhTIPDd40Sh4lc69LX6OLm//hIOpAkEZU8V2cnOdqptnsJ+w34Sh8eiU9J8Sadxiq0o5CsJfJ0mvpISKvUdBM4ZZ75bE+cw+I72Ri0Sgc+2OzSRWgJb30IAmji8JbzXKN50PSp8Zlk96jtQHt89TgzSEF+rj5P76y/hQJpAUPZU/Z3sbKfa5insN+wncXgsOiXNl3Qap9iKQr6SwNdp4ispoVLfQeCccea7NXEOg+9ob9QiEfhsu0MTqSWw9S0EoInDW8J7jeJN16PCZ5bVo74D5fHd48QgDfG1+ji5v/4SDqSJHw7KvqbXa/nbLaF3PnN+uzObponlJ7Pb42zJ3pfM9Pu+HWL/eWaSOM4rsVLS2Z1GbL9KvcLhlrTF7L7Mv1vsaklrMYh5vKZv1PdpmtjNoZMf7anHnnMt/9D2H1ZOYqgV+zX7mP2yTnvGWZlT6dtpmihV4hAGqf2/sS8ycTAWr00V/yG7ma2Sxzm+L8tM36CJxOIrtpifQBN/U/DPPi+T9LfuV2jCX12Z0us/3msUbzpZi23fzizLWUOKWWwankQZPzRWiXovX7pooqlDO4ZXv/bk19KdrwEtTp/WB+tbpItsncOwNm4RWBcOrGxpjPsbaeJ7g7Kvx3QPL5ma/9LLjV7P+3S7LYNrMCL+3e7Ts6EhwoN971o+c5636XZ/hnhTw7/3A+p5nd7bt1i3Vmd7Tc/Hfbopef793ab743lcAMfgbwM5wn67tCOPkDiOLKOa9+zn5P/Mz4MvRF0sx8Uk09NuahrL127TfSUsK+3fopuqcZTAzucz/m3V5yAGr+fcx8U+LNP53AcRqg9/HqqJ3Rysdgu6aegn99Rjy7mqDssN3WXcMsrtNbaWLciOGnXJUrGv3zPOHKoJZvF68wgG2zQU3pa+zNHCnOnhm488H+mcMDciA5t9IdwTrPWhtTpts5uqvOuz2d4j2n2XBauToYlpgiZWbuHfAU34WR2UclOfWgpsbL2W2WJfY1nPLePXtIw5NO49KE5g+K49Z2uYm84sPjhWbWmLwjmucULluYyB4Xz6E9e/osydvNTyp6lfe5byWq5dXHEotZ4Gp0Z9CJxdvnSew7ye7xegJ38gvwifYU66Cl8EO7pw2OlfGc9Q3/Dvq4OyKRi5TNyf89vndfhLQ9ym2EFmBsev8yS+lAc/pgVjYk5pQwxI/Hy+veT1YIFguzMJd01Cx8/PN7ZvtYuOVM2mLWETu3DSMhFpjXqG4MizNSitFXb8PhLH8SUVSnje46Cz+LbFNbvzL9rCaLdVGtkuWnlhcFj+1dP+eXzy6/y7bldPBuHCTeMs9xntV3Cbow6Feh3xbzeHTn60px6bz13psEDYa+c8Wa2MW0q5XcbWQvXNQ0pdfGmt/vC8ceYoTZj2hwOCVycGXt/S+nUxTjnmX/N8mNU7jiu5bbW+71WcjKd+tFCnPXYXG8l5ULRlxV6RlvFjF6fzDagPz7GgieWCz+V/zE2ed9am0MR7bgRNMBc5YXNHnyr6p6zdxBjB/Fz0Xct+7vqbDG4tS6QvjBW8MvwcPiYqDFxzQ35jkpfDtz89VvG6dNh2jRMKT9FPvv1H9ZkevJTyT2/PzfP5tc5mTtx3Ff2lcSuLK3Ro875z13XQmdddbiu63suhh39lTEkTPxOUfcQgRri79Jiez+f0nFe75sGNbEAQhj+ne+aIYRXr4xHyWvJ7KIFfVfSUrxDuIoQQnX/M+T2zla5hVUkSi51vXs/ljtpSx+XOQApYh5WTBwRmhV0FpiJdL/sJ7mc+SRyfKf1d6tY7OaI9jHbL0tzpgiBo4e23QQfCx+afffHAJfPJx3rV+a14d+T7/PtMBvnAPvdB1F88n9MjrI6f+wmj/T7gmEdoYj+HPn60px57zpWTlFJb53b+TbvGrUz/fcbWjU6Z1YVu/axyE+m+Y5w5QhMru/mOQxjkvsX69dAX5ePAaq7Bx4S/qdzvB2NkeWIOJOwr6UGWGdoh/HokzQt5H6pMyGemsh60oh5zLO5w7dvQRGAm/ROaaPAjbx8g0n3HeGBZebomrIoU90ufbe5TRXtkfffWa5lifY2DzWVJu+talelL41eaVy0r9ujaav71K4sDLKxL1/BfMFYZuLfudmki9ykeSKNfi6qPI+nEKyv/uPbsO59/ljg162NrC2fnCZY9+mupw/waev0L8559Uif/yhCRJn4kKLs04l94pEBmSPiaXxiLjjKml40YJuFm3CgsiRadZtagZp7WIxT0qL6rnquLoHfhmZPrecWKtm+I/M+0v72qvc8gcfTOd3N+rrZ45+5JK9K8O0hNDOFuUHYTozSBkHcxnT7zFf59JgPJtDQJfD07P1toswPOP6nYcbZ26l4OWX++2Y/21GPPud6VgZmdPcYtRf/7xlatfZ37RF2cfcZfj3HWWb9CsnPHidwPejDI8tyoITH/svIgjuKCIbsQdflC+OXZez44j03lVeGvcLNrNWnsYzeZtPnTZW9W1y/xfctmaGIhA01YHlLZD01UAB1zeHef6mo375ynk43OOjVptZSnOPYeo+KjC3Obwk+f5YIy/Ro+6/+t8TUrW88rr8PnvrvGCWETLWiz5j1kS0deovyD2rP7fN7L6UwtZm3SZQ6z5Fl8xF/WfqYmRDrrGuQA/6Is35+kid8Jylqd0WxQ1ugafX4xUBJCBFW/4BaduSNPOfAZy8NFPSsOwtMW+USj/BsORz3Efn8ND0tJ4jisgNaMHW0Rs/SkFWnKK61lG4eBqXQz48FW1xrpuM+GzjlWXNngaQ/17xMZCPYV+xUkn9rVXRN7OXDf2ONHe+qx59zQkJ7zhZ2GpoRT1MctWW7Z9/NVXyF42/Wfg4Hsg+oMXONsByO6a6JQp0MYCN+q9EU8bd4XizYstw9vm9UNKZGPUR9eD3WVTAEiHRJ5GOVoaXO7Kc3WT4e9h7T71vo6zoMm3pBE20ITDtdZkghuujahCTdNX0LRHxrXpbWcHO02Z+FNVyvPc9xblkhX1qrwvXwuJPKpXCstMOTiL218EW2j6yGi4Gm1vGLCz2+4xolmnvmjY3byai4/i0NpbcDbqHQtHZtow3zela/z+iPWY/uG0IyjbnyOGPwklxnVxPPOJ5GXmRGPWzT4zJ7rTjKCfZImfiYoa/Ekm0TDr8QgxbK6GKBMss/ueWYiX9sk67k+nlVQ/BSw4kz5qbXvoq5a3rKuLqYiT1tstaodfZzEcXQ57vwFN60tWE6etCJNpR2ytOWgjPSJtf/WjjM75k0+IFXszk+tfc/sWteVZZCl3cVA5FWeALIafHyzuyZ2cejoR3vqsefc0KLifM2/pZ2uPnbOlq3AWI2FebkV/Xvy2+OdRzAQedbt21r97powK7LBD6oMZJ7F/m+uV6kvlnnZflrKI/dLTQ/ZKtl6pRWisq71LCp1Vkpw7xJtpNkr62pzZSWKPI/zfVai2IQmCIe37Sr+JdpT8xFogoibn4LhlTVhEigecAUuijn4+u45C9EWuj/XinIfbyiLM7D7Wa5pZe4uyvM8yicPIuZ58vI8flvpS9zgjk/oGicynuXrrlDnzryy8m2/YLyKQVdZP1d+nvl3Vs86p3d9xXlHaXGDzaJeHr9n/PNN3h7atVBIL8orcZC29J47kiZ+JCibd1Y5+axzy+EL6I68KPviebwD9ObJz1GcTZRXco5YQXanzVsHOrfyWa0Lt8VbNj9Hsb9SpbMOkzjOKq9aTrUtWA6etCJNre3a2qw4uRHlfpN/n8hA3EhZVimuf17L2vNLNvtrQvpVeC62m0NXP9pV9bB2AAAYHElEQVRRj71tWbNDHK/5KHOU2nm14yyredMzscnP8X4XddH6BN4+Xgb8nOPGmf6asKBxezoxqHLP68InpEodPD7C02gz2mqdtnDI7KiWkaUXF3qK3Xnylu/Vumyxl59znO9bZkITjAz39/yahJLxNNCE4wKZ+7dXj/ycK2uCnKrlk7Px8lTyr/Zl73O86ZQimne1lMV1aGmV56el4ccdKwIXezj/zDdFftrcKCdSGaPz5B/87honhP0ZG63uIn0HXiI/rza87enNLw8aKueJejo4ETtxnocXndjyyXkodVez4uc02JPn9XpNrwd7Ybqm2XCOl4M3XaxHmx5JEz8SlHU4TKlT5cdqS44j0LBRcI7mBppbnwVRFWcT9bxN9/u9+sdfxqTN6YQ5LV9q9tWOq2VxJ1XsV885fyeJ4/ySjRJbWHvSetLEqnAN1DvVYlD2l/w72h82OjLI73y+n9kbXg7oDkqKup3z5QhNiF8itHDo7Eeb67G3LWs6FHY6xsDoCtxflX62Vm7M573B62FNbPJzvN9rdakdV8s5Z5w5QhO6OQ0/r4oZVBjwNv3rMdfgPqeNE5X6hHrX2rp2PNpe2Ohud6Gs2qGaPbXjav4Ozup5fXZCE5wjNMFpuLZrPl87rhYyiCZU2ys7N/FU8vTm402nFNG8q6msuo/weaK6yrGpPLJGlivy/aaxiqrb6dM1TrTy7M2rtfyZjbc9PzifpzbcZB+d7PzcVIZkWI9rvabn8zHHym7hBXDae3DCPuvaxVvH3v6VISRNjBeUtRomA7R8LTgHbyB3noX8QoE8T8uxCvvrzqsaqe+sOSqvay/79ZqcvpfEcXrBVoG1tuDnedJ60sQ8axcWMeG84Q/Kvh+cXvDn0A7871T/FmZ1ZPDOl0/wuI3zW8S/MDp7lCY2ceB9T+YjgqVxTPOjTfXY25Y1HXI73X1sqFRlnKmVK3w/G5ea6pFnpHyv1WUTg4r9SjW27DpKE6u6HMGA52nopKQlTUPFvp+3s+VDPI1285zX2cpjBS/bwfPoZHdWgv/rIfae4/uWkdCEJANNSB7Vb9BEFVHXBLw/3NqnhgrV2o0q7U1H6fd8NpYl5oCrAY5fAxgBtcbyFtNkf20HZeW1UGlspmMrE/aw7Hyua5xo5cl9ucfY3lr+zMjZnk1ak3mu2nVTPRs0u6fteZu4ba7YS/UJLyK/NejCKt/Lj9vSw7/IjvcnaQJB2QyM/FpwDt5AVmPLzOoXyzzPv79pjvqHyL/zbyXWVfkNO2qOyuvay/6G6h2ZlMRxZBlNedfagmfmSetJE/PkkxFtBVRMOG8UL0K4z3y7fwuzOjLg+c6DCnv+J+/ozbe28gzO2z5UE60cjvKj1npw/FvOremQ2+nuY0OlCuPWfLhx5eXmenBAxvYhDCr2G1Vp3X2oJnhlNvGvMOB59uqLeZ6Zv/ILXnHhye08xBd4AdkNhl52Z0W4vx5ib6Xd3ZXblhCayLhBExmQyldoogKo8+GCfzaVVGs3ysybjtLv+Wwtq5Sec7IutEvnm3bI/lqMjbzMT49VZv23HXCNE608e/NqLX9G4WzPbH5UpijzXLnfpnr+eFBW2PwOzN7ev/h6PKfn8zm9wuMLuE9YzEVexg2X0EA8rwP0SJoYLyirrcAwFcGDMdnPQHkDWY29yrcirk15rgrps6PmqJvqWrG/T81350Li2J1RrwxqbcHL8aT1pIl5cg10DMq6NRMr0nfjUww0K16v6fm4Kz+7KAwQWj4H7jtFE14Om/qeBjjeemhZtpxb80FuZ69xK9S5Vm5uF69Hb93W6rKp7HPGmVM0EdriCAab8swdI//OufOxwtqfnX+IL2RlHGJ3Vob36yH2ctbZnNVbrx3poIkcHm8PaCKns/oOTayQHLqjV39YazcywpuO0u/53FAWX1TCg1/WflG9DeXJR6Nl/XWvthGV/I4vrnGilWdvXq3lz2j59XKhPT85nycX2GQfnez83NQmfMzMGM7FyuPmYwlCWk/5Xg6evJxYtGSkiTGCsgI6nxhpaNi+0nnimDd4UhBsKHZTnqy+PTdrdakdV+tSsV895/ydJI7zSzZKbGHtSetJE6vC26yuHT55EXd9Q35N5cYKHLPRVJeODIrWhOBstnKWzwyL5x578FxNVDg0td0eLpV6FLN2nFuzQxyvay9Wp3aeOO4Yu46cjNTqUjsejeYbXK/apI6n3b59miaOYLApzzordUUsL6vUn/F02kWLON6gB15tkYfD9/m5vbdrdakdV+tzju+rRU/T/Lgh61jX/Uew2ZRn3Spoos4opqi1Qe14zIhvDKIJbrJ3W/Dc2KeGskQ+hX7Vm85b/1K6LWXxuU4cq5j/lG5KbylPnJPxF8cKTEsMvvSYa+7Uan9r+hqbLfmJc0rtmR0r1aWUZzhPHG/wk63nleqaH9tUBtPbnzJ/5xrV5om8DjytpV1vHb3pePkN26SJMYKy4kU9f9MqWGSBKzZoxXG0PHl+mrNl9YxjgpbX0fuqDniE/Ucb5cufxOFLfUKqaluwOnjSetLELHk71weSYlD2p/w7Agi326Z7fLTAXgY8X32bX8QV7wLqpx+y9xOasDnw9lAG7c4E7HrUCyqeW9WhtLPPuLVhEsfHLWtiU0ehp2hk4BoTeX3VcVavSuve8zQh/aAPgw15egDx9nz7CtdAse78XHWyLevs1oOot8yjWB9x3gFfGu111fUk37doQBMKGd7O0IQCiO3irBx9ADTB2G3alP3htj61YU5Rbd9NRugnbSqL83gHuFifWuQjyvPNS/nY+Lfyd14XX346iO/b6xonBE9PsLEzL1G+j39LexZ9iTcZ8z/1elDU08PpnfnW83jdqtsb2oTbq8zfBePKACDSWtcubg4bbKnySQlIE4MEZcPNBL4CzeO4con0WkDyuCqWxDuMWtMjeyix5k88qFXPUxTQ90vVUTN7LIePtcrSK2KLST+8QeL4cDVS8dW2SEldd81a8usckPwd/2ZMOzPgOavbfFCq6krNofvOj2iiwOFUPyrUowq6dK5Dh/3HrYYLKDKuZAOl2fpZZZCNG1U9ZOkPHGfO00RmUycGx2iI1zXcwGLfa/Wu+kL4NRp/sYNnHrd2TJFHrU7r0/vtqdrL2IWbgtW6ZukP9H0LAjShkeHtAk1ohOI+aCKiOGtD9IerwKCzFtV2e+fjTecstphsY1l8zhWu0ROfyngjyvub/rQLfFFhGeRZxxh42Z7+X2T+1V9c44TgWWH/tja1VQdeovw+7cl9ax2E15qMjx3GgkJRTx+nuaSt52nVNPfJ+veYwwiGRY1JfZllN3Do6l8ZM9LEMEFZudqtJtgX64jDRYDh6PxiNUyaTQfJ81suLNTkwkGWPF9Z48mvIe/H9JQ7938T9TjR/v01350DiWN3Rr0yEG1RWakp0hrt5kkT6847tkrZ8yNc0kWzNsmQQeMv9+8jGLye0+NZUTS/gaR2ErFip21018ReDsKHd/jRnnrsOTe0nLDB0Kq4IdBp3HKVy1yLj3PVwBA7z7PpqQsvv9c466lbJU13TZTKO4KBYL9DQ3m9WV1v9/SsbHU84OeK+hh6EGkWPZS609fzOa2O53ncn1OlR8Yci7dTYRuaMOBAEwaYbLfQptEHMJbB37pcd2XV6Pn1VE1sqbhg3qNPNdot1E2UVb+e2GJOPGdrWfy8+z39Sq42F+fnBb8MLwN6WCNLHhMwWOR5fmqsilD7bLg0IWwv+BSvkjhn55wmz6tHe37DfJ54CfsM/6O0ez5799ciP6veub4K104tHETanf6VMSVNDBSUzR76O3eat+ke3tQW3tL2/ptfuCNWtFqNHohmdwFCnrf7HHSJ+T0f053yu93TdmEVg4jGz3ku9aQ8l7fKPabHnVb/OjuszAmKX4XzWfkfY3+xXiccJHGcUJSziJzzLfnY8zE9eETe026eNLFmnYOyWeA2sP4Lb018vN+WSFoMdn3cvwlCRwbEXrM5BPmizYUbN1StEz+7a6IDhy795J567Dk3tB2dP49FVh97wLjlLZf8i0+CPhGUPWicJfO2fnbXRLEi+RjwzXMN3l/STbrSPOptuNcvuT/O2rlNt3BjmsaO8LK9OO/Sy+3SdxTby3HQZe8x7e6o3aYk0ISFDZqwyIj90ITAcdqXvX2qq92CNXl/VriW2W381rLy85xzccGAxj1lnA4v9aWYwDx+lYK32WrZT10v7W4LmYFrnBA8C/NjmXW2oG7H9aUov197ipdPvecvu+JQop5+TudpUdHTrjhZPpayPiTMAePc72+63ShGFvzgYdx8z+vH8svjKwfGL0gTYwVlw5DwTCs3AoTynz6hl33AUwRazfxuQSyy8e0bbyHKz5ypWs8WIcram9/cQj/CfrNWpxwgcZxSmLMQsWQ/8wfhR55286SJ9eIdYF0P/GK3fJf4V/w7gOjIQLAv9z82v9g4p21010QXDh36yT312HNuaDlxfrkP7zpuNZQ7Oxi/YDMnNhtd0V2X7xtnumuiivAIBh00pNSbjwPznEgMUsoJYZfbF0JS7/hhjVnH2G1Ypu9223tEu+tV2rsXmrAJQhM2m3gEmogozt7Y1ae6263cd3uGiRYuJZuKZfE5T7je8sx7cgbiuz3Xr8/zv2CsaoHuSOsaJwS/8vxYFtmJV16++L6nPTvHoUS9WjidqcW+c5iSruf5ZtBsEDjXcUHDpfzW/UQn/5JOG1+SOlxQduagrEiLDfkOeN2qPxPgRMuNlPLyBmWXvOcL8eyO2rqeYYUIr0un7SahH2N/J0uas3ENGM257j/hFe6wZgHZUFfRaXjazZMmVrdjQDLmuWz8jn/3ZPBarYbNNR1W2x+i6Yx/y9f+mujHYZ8f7anHnnPbglBzW/Uat5r0n63ULUxsWvwppm2qy3eNM/01EakUNo5hsE9DSnX5ZDgfo5Tk864mX5jvsE93vhJiNTa+f4FhlTdnsV61lPfHyyrcQiZbDzXZe0y7b626dR40YZHJ+lFoQgcFTehcztr7CsGT0g0vo09tarcQDHJcy3SyeVtZfM5fXskaq6kxmHkaAbz3asF4fmWj+xhdKe/Iw65xQuPZUKndvLTyO7bn9Kn5fMZwmz6yTFxf+85h5vZdzfmC1lgfxeehlWuXVg67/StjRpr43qBsVuGjvr5ez+kZnjv2/guPBtjzT+S3M69Yj3lJdqrj8xketxCPftXGIfafbCGJ4+Ri3cUlxi9jOb47q+9I+EP+3RNY6Guo35k/A4eeBXTM60hNdOOw04/21GPPuVuaKfUBy7gQyh/pn7D/Q7YfqQlPWx7CYKeGPPU+Io1g8QyPwmks5YfsFrY2G9rIpTE5NNEI7MDkwk+giQNJl7P+tCbKtbOP7vYfO+t4JJVx/Ny3rSwelLV+bRHNWDa0IB4lEXP9nbb+0FhF5uefp2piK6+z2jPcHO4ch8p5e76nOuz0T0dhqazl8aGOU8wkPfMKhaT8nBy2+ldmEWli+KBsxgVfQSAuIwcKEACBhQANGOABAiAATcAHQEAjgHFCo4J9IxOAJn6v9cXPmcVPEQu2lIJ4hdNGPPQTmkB7juiaH7OZNIGg7MeaAAV/KwESx7fWD/UCgbMJQBNnE0d5304Amvj2FkL9ziYATZxNHOV9OwFo4ttbKK9f22MG49kI4kUUtY2f0ATas9aMON6RAGkCQdmOUJHVNQiQOK5hDawAgf0EoIn9DJHDtQhAE9dqT1iznwA0sZ8hcrgWAWjix9qz4TmUwjIE8QSO0pef0ATas9SEONaZAGkCQdnOYJHd7xMgcfy+JbAABPoQgCb6cEQu1yEATVynLWFJHwLQRB+OyOU6BKCJX2pL/izZ7CXKNTMQxKsRisd/QhNoz9he2DieAGkCQdnjWaOEHyNA4vixaqO6IHAYAWjiMLTI+EcJQBM/2nCo9mEEoInD0CLjHyUATXxxw72e0+MRXgwZXrr7mO638Pb291/lbe0rqxDEWyGxdvyEJtCeVvNh/wEESBMIyh4A97NZvqbH/T7dt/yFwemzlf+K0kkcX1EZVCIjAP/OgJzyFZo4BfMPFQIdQhM/5K5dqwrft3BCExaZq++HJqwWhiYsMtr+k/1IBN5YQPbvPj216pX2ibw2nF/K+2LHfkITw7fnyVq8mI+3mkOaQFC2ldzXp5c/vwgN7f5rvTP49Sy2VZDEse1snHUsAfj3sXz13KEJncu4e6FDaGJU74fvWy0PTVhkrr4fmrBaGJqwyGj7T/YjEXhbrpVv98e2xUkiLwRltdalfT+hieHb82QtknMM+kmaQFB2UAeA2TYBEoedAkdAYCwC0MRY7Q1r6wSgiTojpBiLADQxVnvD2joBaKLOCCnGIgBNjNXesLZOgDSBoGydFVIMRoDEMZjZMBcETALQhIkGBwYlAE0M2vAw2yQATZhocGBQAtDEoA0Ps00C0ISJBgcGJUCaQFB2UAeA2TYBEoedAkdAYCwC0MRY7Q1r6wSgiTojpBiLADQxVnvD2joBaKLOCCnGIgBNjNXesLZOgDSBoGydFVIMRoDEMZjZMBcETALQhIkGBwYlAE0M2vAw2yQATZhocGBQAtDEoA0Ps00C0ISJBgcGJUCaQFB2UAeA2TYBEoedAkdAYCwC0MRY7Q1r6wSgiTojpBiLADQxVnvD2joBaKLOCCnGIgBNjNXesLZOgDSBoGydFVIMRoDEMZjZMBcETALQhIkGBwYlAE0M2vAw2yQATZhocGBQAtDEoA0Ps00C0ISJBgcGJUCaQFB2UAeA2TYBEoedAkdAYCwC0MRY7Q1r6wSgiTojpBiLADQxVnvD2joBaKLOCCnGIgBNjNXesLZOgDSBoGydFVIMRoDEMZjZMBcETALQhIkGBwYlAE0M2vAw2yQATZhocGBQAtDEoA0Ps00C0ISJBgcGJUCaQFB2UAeA2TYBEoedAkdAYCwC0MRY7Q1r6wSgiTojpBiLADQxVnvD2joBaKLOCCnGIgBNjNXesLZOgDSBoGydFVIMRoDEMZjZMBcETALQhIkGBwYlAE0M2vAw2yQATZhocGBQAtDEoA0Ps00C0ISJBgcGJUCaQFB2UAeA2TYBEoedAkdAYCwC0MRY7Q1r6wSgiTojpBiLADQxVnvD2joBaKLOCCnGIgBNjNXesLZOgDSBoGydFVIMRoDEMZjZMBcETALQhIkGBwYlAE0M2vAw2yQATZhocGBQAtDEoA0Ps00C0ISJBgcGJUCaQFB2UAeA2TYBEoedAkdAYCwC0MRY7Q1r6wSgiTojpBiLADQxVnvD2joBaKLOCCnGIgBNjNXesLZOgDSBoGydFVIMRoDEMZjZMBcETALQhIkGBwYlAE0M2vAw2yQATZhocGBQAtDEoA0Ps00C0ISJBgcGJUCaQFB2UAeA2TYBEoedAkdAYCwC0MRY7Q1r6wSgiTojpBiLADQxVnvD2joBaKLOCCnGIgBNjNXesLZOgDSBoGydFVIMRoDEMZjZMBcETALQhIkGBwYlAE0M2vAw2yQATZhocGBQAtDEoA0Ps00C0ISJBgcGJUCaQFB2UAeA2TYBEoedAkdAYCwC0MRY7Q1r6wSgiTojpBiLADQxVnvD2joBaKLOCCnGIgBNjNXesLZOgDSBoGydFVIMRoDEMZjZMBcETALQhIkGBwYlAE0M2vAw2yQATZhocGBQAtDEoA0Ps00C0ISJBgcGJUCaQFB2UAeA2TYBEoedAkdAYCwC0MRY7Q1r6wSgiTojpBiLADQxVnvD2joBaKLOCCnGIgBNjNXesLZOgDSBoGydFVIMRoDEMZjZMBcETALQhIkGBwYlAE0M2vAw2yQATZhocGBQAtDEoA0Ps00C0ISJBgcGJUCaQFB2UAeA2TYBEoedAkdAYCwC0MRY7Q1r6wSgiTojpBiLADQxVnvD2joBaKLOCCnGIgBNjNXesLZOgDSBoGydFVIMRoDEMZjZMBcETALQhIkGBwYlAE0M2vAw2yQATZhocGBQAtDEoA0Ps00C0ISJBgcGJUCaQFB2UAeA2TYBEoedAkdAYCwC0MRY7Q1r6wSgiTojpBiLADQxVnvD2joBaKLOCCnGIgBNjNXesLZOgDQxB2XDF/yBAXwAPgAfgA/AB+AD8AH4AHwAPgAfgA/AB+AD8AH4AHwAPgAfONYH/v37N/2F//APBEAgEYAmEgtsgUAgAE3AD0BAEoAmJA98AwFoAj4AApIANCF54BsIQBPwARCQBEgT/wF36hIGOcO58AAAAABJRU5ErkJggg==;" vertex="1" parent="1">
          <mxGeometry x="79.78" y="940" width="560.81" height="80" as="geometry" />
        </mxCell>
        <mxCell id="QQG2cU5XAlkEwUXfJwXq-75" value="Table IN" style="shape=table;html=1;whiteSpace=wrap;startSize=20;container=1;collapsible=0;childLayout=tableLayout;fixedRows=1;rowLines=0;fontStyle=1;align=center;fillColor=none;" vertex="1" parent="1">
          <mxGeometry x="640" y="400" width="80.22" height="60" as="geometry" />
        </mxCell>
        <mxCell id="QQG2cU5XAlkEwUXfJwXq-76" value="" style="shape=partialRectangle;html=1;whiteSpace=wrap;collapsible=0;dropTarget=0;pointerEvents=0;fillColor=none;top=0;left=0;bottom=1;right=0;points=[[0,0.5],[1,0.5]];portConstraint=eastwest;" vertex="1" parent="QQG2cU5XAlkEwUXfJwXq-75">
          <mxGeometry y="20" width="80.22" height="20" as="geometry" />
        </mxCell>
        <mxCell id="QQG2cU5XAlkEwUXfJwXq-77" value="K1" style="shape=partialRectangle;html=1;whiteSpace=wrap;connectable=0;fillColor=none;top=0;left=0;bottom=0;right=0;overflow=hidden;" vertex="1" parent="QQG2cU5XAlkEwUXfJwXq-76">
          <mxGeometry width="18" height="20" as="geometry" />
        </mxCell>
        <mxCell id="QQG2cU5XAlkEwUXfJwXq-78" value="Value 1" style="shape=partialRectangle;html=1;whiteSpace=wrap;connectable=0;fillColor=none;top=0;left=0;bottom=0;right=0;align=left;spacingLeft=6;overflow=hidden;" vertex="1" parent="QQG2cU5XAlkEwUXfJwXq-76">
          <mxGeometry x="18" width="62" height="20" as="geometry" />
        </mxCell>
        <mxCell id="QQG2cU5XAlkEwUXfJwXq-79" value="" style="shape=partialRectangle;html=1;whiteSpace=wrap;collapsible=0;dropTarget=0;pointerEvents=0;fillColor=none;top=0;left=0;bottom=0;right=0;points=[[0,0.5],[1,0.5]];portConstraint=eastwest;" vertex="1" parent="QQG2cU5XAlkEwUXfJwXq-75">
          <mxGeometry y="40" width="80.22" height="20" as="geometry" />
        </mxCell>
        <mxCell id="QQG2cU5XAlkEwUXfJwXq-80" value="K2" style="shape=partialRectangle;html=1;whiteSpace=wrap;connectable=0;fillColor=none;top=0;left=0;bottom=0;right=0;overflow=hidden;" vertex="1" parent="QQG2cU5XAlkEwUXfJwXq-79">
          <mxGeometry width="18" height="20" as="geometry" />
        </mxCell>
        <mxCell id="QQG2cU5XAlkEwUXfJwXq-81" value="Value 2" style="shape=partialRectangle;html=1;whiteSpace=wrap;connectable=0;fillColor=none;top=0;left=0;bottom=0;right=0;align=left;spacingLeft=6;overflow=hidden;" vertex="1" parent="QQG2cU5XAlkEwUXfJwXq-79">
          <mxGeometry x="18" width="62" height="20" as="geometry" />
        </mxCell>
        <mxCell id="QQG2cU5XAlkEwUXfJwXq-158" value="Table OUT" style="shape=table;html=1;whiteSpace=wrap;startSize=20;container=1;collapsible=0;childLayout=tableLayout;fixedRows=1;rowLines=0;fontStyle=1;align=center;fillColor=none;" vertex="1" parent="1">
          <mxGeometry x="960" y="400" width="80.22" height="60" as="geometry" />
        </mxCell>
        <mxCell id="QQG2cU5XAlkEwUXfJwXq-159" value="" style="shape=partialRectangle;html=1;whiteSpace=wrap;collapsible=0;dropTarget=0;pointerEvents=0;fillColor=none;top=0;left=0;bottom=1;right=0;points=[[0,0.5],[1,0.5]];portConstraint=eastwest;" vertex="1" parent="QQG2cU5XAlkEwUXfJwXq-158">
          <mxGeometry y="20" width="80.22" height="20" as="geometry" />
        </mxCell>
        <mxCell id="QQG2cU5XAlkEwUXfJwXq-160" value="K1" style="shape=partialRectangle;html=1;whiteSpace=wrap;connectable=0;fillColor=none;top=0;left=0;bottom=0;right=0;overflow=hidden;" vertex="1" parent="QQG2cU5XAlkEwUXfJwXq-159">
          <mxGeometry width="18" height="20" as="geometry" />
        </mxCell>
        <mxCell id="QQG2cU5XAlkEwUXfJwXq-161" value="Value 1" style="shape=partialRectangle;html=1;whiteSpace=wrap;connectable=0;fillColor=none;top=0;left=0;bottom=0;right=0;align=left;spacingLeft=6;overflow=hidden;" vertex="1" parent="QQG2cU5XAlkEwUXfJwXq-159">
          <mxGeometry x="18" width="62" height="20" as="geometry" />
        </mxCell>
        <mxCell id="QQG2cU5XAlkEwUXfJwXq-162" value="" style="shape=partialRectangle;html=1;whiteSpace=wrap;collapsible=0;dropTarget=0;pointerEvents=0;fillColor=none;top=0;left=0;bottom=0;right=0;points=[[0,0.5],[1,0.5]];portConstraint=eastwest;" vertex="1" parent="QQG2cU5XAlkEwUXfJwXq-158">
          <mxGeometry y="40" width="80.22" height="20" as="geometry" />
        </mxCell>
        <mxCell id="QQG2cU5XAlkEwUXfJwXq-163" value="K2" style="shape=partialRectangle;html=1;whiteSpace=wrap;connectable=0;fillColor=none;top=0;left=0;bottom=0;right=0;overflow=hidden;" vertex="1" parent="QQG2cU5XAlkEwUXfJwXq-162">
          <mxGeometry width="18" height="20" as="geometry" />
        </mxCell>
        <mxCell id="QQG2cU5XAlkEwUXfJwXq-164" value="Value 2" style="shape=partialRectangle;html=1;whiteSpace=wrap;connectable=0;fillColor=none;top=0;left=0;bottom=0;right=0;align=left;spacingLeft=6;overflow=hidden;" vertex="1" parent="QQG2cU5XAlkEwUXfJwXq-162">
          <mxGeometry x="18" width="62" height="20" as="geometry" />
        </mxCell>
        <mxCell id="QQG2cU5XAlkEwUXfJwXq-165" style="edgeStyle=none;rounded=0;orthogonalLoop=1;jettySize=auto;html=1;endArrow=none;endFill=0;" edge="1" parent="1" source="QQG2cU5XAlkEwUXfJwXq-104" target="QQG2cU5XAlkEwUXfJwXq-63">
          <mxGeometry relative="1" as="geometry" />
        </mxCell>
        <mxCell id="QQG2cU5XAlkEwUXfJwXq-166" style="edgeStyle=none;rounded=0;orthogonalLoop=1;jettySize=auto;html=1;endArrow=none;endFill=0;" edge="1" parent="1" source="QQG2cU5XAlkEwUXfJwXq-158" target="QQG2cU5XAlkEwUXfJwXq-63">
          <mxGeometry relative="1" as="geometry" />
        </mxCell>
        <mxCell id="QQG2cU5XAlkEwUXfJwXq-167" value="Table Mid" style="shape=table;html=1;whiteSpace=wrap;startSize=20;container=1;collapsible=0;childLayout=tableLayout;fixedRows=1;rowLines=0;fontStyle=1;align=center;fillColor=none;" vertex="1" parent="1">
          <mxGeometry x="420" y="400" width="80.22" height="60" as="geometry" />
        </mxCell>
        <mxCell id="QQG2cU5XAlkEwUXfJwXq-168" value="" style="shape=partialRectangle;html=1;whiteSpace=wrap;collapsible=0;dropTarget=0;pointerEvents=0;fillColor=none;top=0;left=0;bottom=1;right=0;points=[[0,0.5],[1,0.5]];portConstraint=eastwest;" vertex="1" parent="QQG2cU5XAlkEwUXfJwXq-167">
          <mxGeometry y="20" width="80.22" height="20" as="geometry" />
        </mxCell>
        <mxCell id="QQG2cU5XAlkEwUXfJwXq-169" value="K1" style="shape=partialRectangle;html=1;whiteSpace=wrap;connectable=0;fillColor=none;top=0;left=0;bottom=0;right=0;overflow=hidden;" vertex="1" parent="QQG2cU5XAlkEwUXfJwXq-168">
          <mxGeometry width="18" height="20" as="geometry" />
        </mxCell>
        <mxCell id="QQG2cU5XAlkEwUXfJwXq-170" value="Value 1" style="shape=partialRectangle;html=1;whiteSpace=wrap;connectable=0;fillColor=none;top=0;left=0;bottom=0;right=0;align=left;spacingLeft=6;overflow=hidden;" vertex="1" parent="QQG2cU5XAlkEwUXfJwXq-168">
          <mxGeometry x="18" width="62" height="20" as="geometry" />
        </mxCell>
        <mxCell id="QQG2cU5XAlkEwUXfJwXq-171" value="" style="shape=partialRectangle;html=1;whiteSpace=wrap;collapsible=0;dropTarget=0;pointerEvents=0;fillColor=none;top=0;left=0;bottom=0;right=0;points=[[0,0.5],[1,0.5]];portConstraint=eastwest;" vertex="1" parent="QQG2cU5XAlkEwUXfJwXq-167">
          <mxGeometry y="40" width="80.22" height="20" as="geometry" />
        </mxCell>
        <mxCell id="QQG2cU5XAlkEwUXfJwXq-172" value="K2" style="shape=partialRectangle;html=1;whiteSpace=wrap;connectable=0;fillColor=none;top=0;left=0;bottom=0;right=0;overflow=hidden;" vertex="1" parent="QQG2cU5XAlkEwUXfJwXq-171">
          <mxGeometry width="18" height="20" as="geometry" />
        </mxCell>
        <mxCell id="QQG2cU5XAlkEwUXfJwXq-173" value="Value 2" style="shape=partialRectangle;html=1;whiteSpace=wrap;connectable=0;fillColor=none;top=0;left=0;bottom=0;right=0;align=left;spacingLeft=6;overflow=hidden;" vertex="1" parent="QQG2cU5XAlkEwUXfJwXq-171">
          <mxGeometry x="18" width="62" height="20" as="geometry" />
        </mxCell>
        <mxCell id="QQG2cU5XAlkEwUXfJwXq-174" value="Table Ori" style="shape=table;html=1;whiteSpace=wrap;startSize=20;container=1;collapsible=0;childLayout=tableLayout;fixedRows=1;rowLines=0;fontStyle=1;align=center;fillColor=none;" vertex="1" parent="1">
          <mxGeometry x="240" y="400" width="80.22" height="60" as="geometry" />
        </mxCell>
        <mxCell id="QQG2cU5XAlkEwUXfJwXq-175" value="" style="shape=partialRectangle;html=1;whiteSpace=wrap;collapsible=0;dropTarget=0;pointerEvents=0;fillColor=none;top=0;left=0;bottom=1;right=0;points=[[0,0.5],[1,0.5]];portConstraint=eastwest;" vertex="1" parent="QQG2cU5XAlkEwUXfJwXq-174">
          <mxGeometry y="20" width="80.22" height="20" as="geometry" />
        </mxCell>
        <mxCell id="QQG2cU5XAlkEwUXfJwXq-176" value="K1" style="shape=partialRectangle;html=1;whiteSpace=wrap;connectable=0;fillColor=none;top=0;left=0;bottom=0;right=0;overflow=hidden;" vertex="1" parent="QQG2cU5XAlkEwUXfJwXq-175">
          <mxGeometry width="18" height="20" as="geometry" />
        </mxCell>
        <mxCell id="QQG2cU5XAlkEwUXfJwXq-177" value="Value 1" style="shape=partialRectangle;html=1;whiteSpace=wrap;connectable=0;fillColor=none;top=0;left=0;bottom=0;right=0;align=left;spacingLeft=6;overflow=hidden;" vertex="1" parent="QQG2cU5XAlkEwUXfJwXq-175">
          <mxGeometry x="18" width="62" height="20" as="geometry" />
        </mxCell>
        <mxCell id="QQG2cU5XAlkEwUXfJwXq-178" value="" style="shape=partialRectangle;html=1;whiteSpace=wrap;collapsible=0;dropTarget=0;pointerEvents=0;fillColor=none;top=0;left=0;bottom=0;right=0;points=[[0,0.5],[1,0.5]];portConstraint=eastwest;" vertex="1" parent="QQG2cU5XAlkEwUXfJwXq-174">
          <mxGeometry y="40" width="80.22" height="20" as="geometry" />
        </mxCell>
        <mxCell id="QQG2cU5XAlkEwUXfJwXq-179" value="K2" style="shape=partialRectangle;html=1;whiteSpace=wrap;connectable=0;fillColor=none;top=0;left=0;bottom=0;right=0;overflow=hidden;" vertex="1" parent="QQG2cU5XAlkEwUXfJwXq-178">
          <mxGeometry width="18" height="20" as="geometry" />
        </mxCell>
        <mxCell id="QQG2cU5XAlkEwUXfJwXq-180" value="Value 2" style="shape=partialRectangle;html=1;whiteSpace=wrap;connectable=0;fillColor=none;top=0;left=0;bottom=0;right=0;align=left;spacingLeft=6;overflow=hidden;" vertex="1" parent="QQG2cU5XAlkEwUXfJwXq-178">
          <mxGeometry x="18" width="62" height="20" as="geometry" />
        </mxCell>
        <mxCell id="QQG2cU5XAlkEwUXfJwXq-181" value="" style="endArrow=classic;html=1;dashed=1;" edge="1" parent="1" source="QQG2cU5XAlkEwUXfJwXq-174" target="QQG2cU5XAlkEwUXfJwXq-167">
          <mxGeometry width="50" height="50" relative="1" as="geometry">
            <mxPoint x="250" y="610" as="sourcePoint" />
            <mxPoint x="300" y="560" as="targetPoint" />
          </mxGeometry>
        </mxCell>
        <mxCell id="QQG2cU5XAlkEwUXfJwXq-182" value="" style="endArrow=classic;html=1;dashed=1;" edge="1" parent="1" source="QQG2cU5XAlkEwUXfJwXq-167" target="QQG2cU5XAlkEwUXfJwXq-75">
          <mxGeometry width="50" height="50" relative="1" as="geometry">
            <mxPoint x="250" y="610" as="sourcePoint" />
            <mxPoint x="300" y="560" as="targetPoint" />
          </mxGeometry>
        </mxCell>
        <mxCell id="QQG2cU5XAlkEwUXfJwXq-183" value="Action" style="endArrow=classic;html=1;dashed=1;" edge="1" parent="1" source="QQG2cU5XAlkEwUXfJwXq-75" target="QQG2cU5XAlkEwUXfJwXq-104">
          <mxGeometry width="50" height="50" relative="1" as="geometry">
            <mxPoint x="250" y="610" as="sourcePoint" />
            <mxPoint x="300" y="560" as="targetPoint" />
          </mxGeometry>
        </mxCell>
        <mxCell id="QQG2cU5XAlkEwUXfJwXq-184" value="Action" style="endArrow=classic;html=1;dashed=1;" edge="1" parent="1" source="QQG2cU5XAlkEwUXfJwXq-104" target="QQG2cU5XAlkEwUXfJwXq-158">
          <mxGeometry width="50" height="50" relative="1" as="geometry">
            <mxPoint x="250" y="610" as="sourcePoint" />
            <mxPoint x="300" y="560" as="targetPoint" />
          </mxGeometry>
        </mxCell>
      </root>
    </mxGraphModel>
  </diagram>
</mxfile>
